<?xml version="1.0" encoding="utf-8"?>
<!-- Generator: Adobe Illustrator 28.1.0, SVG Export Plug-In . SVG Version: 6.00 Build 0)  -->
<svg version="1.0" id="Livello_1" xmlns="http://www.w3.org/2000/svg" xmlns:xlink="http://www.w3.org/1999/xlink" x="0px" y="0px"
	 viewBox="0 0 1236.5 87.5" enable-background="new 0 0 1236.5 87.5" xml:space="preserve">
<g>
	<path fill="#FFFFFF" d="M597.6,41.7h1.1c0.7,0,1.2,0.1,1.5,0.3c0.5,0.3,0.7,0.9,0.7,1.8v0.6l0,0.3c0,0,0,0.1,0,0.1c0,0,0,0.1,0,0.1
		h1.3l0-0.1c0-0.1-0.1-0.2-0.1-0.4c0-0.2,0-0.4,0-0.6v-0.6c0-0.4-0.1-0.8-0.4-1.2c-0.3-0.4-0.7-0.7-1.4-0.8c0.5-0.1,0.9-0.2,1.1-0.4
		c0.5-0.3,0.8-0.8,0.8-1.5c0-1-0.4-1.6-1.2-2c-0.5-0.2-1.2-0.3-2.1-0.3h-2.7v7.8h1.4V41.7z M597.6,37.9h1.2c0.8,0,1.3,0.1,1.7,0.3
		c0.3,0.2,0.5,0.6,0.5,1.1c0,0.6-0.3,1-0.8,1.2c-0.3,0.1-0.7,0.2-1.3,0.2h-1.2V37.9z"/>
	<path fill="#FFFFFF" d="M592,40.9c0,2,0.7,3.7,2.1,5.1c1.4,1.4,3.1,2.1,5,2.1c2,0,3.7-0.7,5.1-2.1c1.4-1.4,2.1-3.1,2.1-5.1
		c0-2-0.7-3.6-2.1-5c-1.4-1.4-3.1-2.1-5.1-2.1c-2,0-3.6,0.7-5,2.1C592.7,37.2,592,38.9,592,40.9z M599.1,34.7c1.7,0,3.1,0.6,4.3,1.8
		c1.2,1.2,1.8,2.6,1.8,4.3c0,1.7-0.6,3.2-1.8,4.4c-1.2,1.2-2.6,1.8-4.3,1.8c-1.7,0-3.2-0.6-4.3-1.8c-1.2-1.2-1.8-2.7-1.8-4.4
		c0-1.7,0.6-3.1,1.8-4.3C596,35.3,597.4,34.7,599.1,34.7z"/>
	<path fill="#FFFFFF" d="M110.9,69c-0.2-0.1-0.6-0.3-1-0.5c-2.5-1.3-3.7-2.7-3.7-4.2c0-1.1,0.3-1.9,0.9-2.5c0.6-0.6,1.5-0.9,2.5-0.9
		c0.8,0,1.5,0.2,2,0.5s1,0.8,1.3,1.4l1.5-0.9c-0.5-0.9-1.1-1.6-1.9-2c-0.8-0.5-1.7-0.7-2.8-0.7c-1.6,0-3,0.5-4,1.4
		c-1,1-1.5,2.2-1.5,3.7c0,1.2,0.4,2.3,1.1,3.1c0.7,0.9,2.1,1.9,4.3,3c1.7,0.9,2.8,1.7,3.3,2.4c0.5,0.7,0.8,1.5,0.8,2.6
		c0,1.4-0.4,2.5-1.1,3.3c-0.8,0.8-1.8,1.2-3.2,1.2c-1.1,0-2-0.3-2.7-0.9c-0.8-0.6-1.3-1.4-1.6-2.4l-1.7,0.9c0.6,1.4,1.3,2.4,2.3,3.1
		c1,0.7,2.2,1,3.6,1c1.9,0,3.4-0.6,4.6-1.7c1.1-1.1,1.7-2.6,1.7-4.6c0-1.4-0.3-2.6-0.9-3.5C114,70.9,112.8,70,110.9,69z"/>
	<path fill="#FFFFFF" d="M136.1,69.6c-0.7-0.7-1.4-1.2-2.3-1.5c-0.9-0.3-1.8-0.5-2.7-0.5c-0.9,0-1.8,0.2-2.7,0.5s-1.6,0.9-2.3,1.5
		c-0.7,0.7-1.2,1.4-1.5,2.2c-0.3,0.8-0.5,1.7-0.5,2.7c0,1,0.2,1.8,0.5,2.7s0.8,1.6,1.5,2.2c0.7,0.7,1.5,1.2,2.3,1.6
		c0.8,0.4,1.7,0.5,2.7,0.5c0.9,0,1.8-0.2,2.7-0.5c0.9-0.4,1.6-0.9,2.3-1.6c0.7-0.7,1.2-1.4,1.5-2.2c0.4-0.8,0.5-1.7,0.5-2.7
		c0-0.9-0.2-1.8-0.5-2.7C137.3,71,136.8,70.3,136.1,69.6z M134.8,78.3c-1,1-2.2,1.5-3.6,1.5c-1.4,0-2.6-0.5-3.6-1.5
		c-1-1-1.5-2.3-1.5-3.8c0-1.5,0.5-2.8,1.5-3.8s2.2-1.5,3.6-1.5c1.4,0,2.6,0.5,3.6,1.5c1,1,1.5,2.3,1.5,3.8
		C136.2,76,135.7,77.3,134.8,78.3z"/>
	<path fill="#FFFFFF" d="M151.4,58.1c-1.3,0-2.2,0.4-2.7,1.2c-0.5,0.8-0.7,2.5-0.7,5.1V68h-2.4v1.5h2.4V81h1.8V69.6h2.8V68h-2.8
		v-4.9c0-1.3,0.1-2.3,0.4-2.8c0.3-0.5,0.7-0.8,1.3-0.8c0.2,0,0.4,0,0.6,0.1c0.2,0.1,0.4,0.1,0.7,0.3l0.3-1.6
		c-0.3-0.1-0.5-0.2-0.8-0.2C152,58.1,151.7,58.1,151.4,58.1z"/>
	<polygon fill="#FFFFFF" points="163,62.7 161.3,62.7 161.3,68 158.9,68 158.9,69.6 161.3,69.6 161.3,81 163,81 163,69.6 
		165.6,69.6 165.6,68 163,68 	"/>
	<polygon fill="#FFFFFF" points="185.3,77.4 181.2,67.3 177.2,77.4 173.8,68 171.9,68 177.1,81.8 181.3,71.5 185.4,81.8 190.6,68 
		188.7,68 	"/>
	<path fill="#FFFFFF" d="M208.5,70.4c-0.4-0.9-1.1-1.6-1.9-2.1c-0.8-0.5-1.8-0.7-2.9-0.7c-1.8,0-3.2,0.7-4.3,2
		c-1.1,1.3-1.7,3-1.7,5.1c0,2.1,0.6,3.8,1.7,5c1.1,1.3,2.6,1.9,4.5,1.9c1.1,0,2-0.3,2.7-0.8c0.8-0.5,1.4-1.2,1.8-2.2V81h1.8V68h-1.8
		V70.4z M207.4,78.4c-0.8,1-1.9,1.5-3.2,1.5c-1.4,0-2.5-0.5-3.2-1.4c-0.8-0.9-1.1-2.2-1.1-3.9c0-1.7,0.4-3,1.2-4
		c0.8-1,1.9-1.5,3.2-1.5c1.4,0,2.4,0.5,3.2,1.4c0.8,0.9,1.2,2.2,1.2,3.7C208.5,76,208.1,77.4,207.4,78.4z"/>
	<path fill="#FFFFFF" d="M226.7,67.6c-0.8,0-1.6,0.2-2.2,0.7c-0.6,0.5-1.3,1.3-1.9,2.4V68h-1.8V81h1.8v-6.4c0-1.5,0.4-2.8,1.1-3.8
		c0.8-1,1.7-1.5,2.8-1.5c0.2,0,0.4,0,0.6,0.1c0.2,0,0.4,0.1,0.6,0.1l0.6-1.7c-0.3-0.1-0.5-0.2-0.8-0.2
		C227.2,67.6,227,67.6,226.7,67.6z"/>
	<path fill="#FFFFFF" d="M243.6,79.1c-0.7,0.5-1.6,0.8-2.5,0.8c-1.3,0-2.4-0.5-3.2-1.4c-0.8-1-1.2-2.3-1.3-3.9h10.3v-0.4
		c0-2-0.5-3.6-1.6-4.8c-1.1-1.2-2.5-1.8-4.3-1.8c-1.9,0-3.4,0.7-4.6,2c-1.2,1.3-1.7,3-1.7,5.1c0,2.1,0.6,3.7,1.8,5
		c1.2,1.3,2.7,1.9,4.6,1.9c1.4,0,2.6-0.3,3.5-0.9c1-0.6,1.8-1.6,2.4-2.9l-1.6-0.9C244.9,77.9,244.3,78.6,243.6,79.1z M238,70.3
		c0.7-0.7,1.6-1,2.7-1c1.2,0,2.1,0.3,2.8,1c0.7,0.7,1.1,1.6,1.2,2.8h-8C236.9,71.9,237.3,71,238,70.3z"/>
	<path fill="#FFFFFF" d="M278.3,79.1c-0.7,0.5-1.6,0.8-2.5,0.8c-1.3,0-2.4-0.5-3.2-1.4c-0.8-1-1.2-2.3-1.3-3.9h10.3v-0.4
		c0-2-0.5-3.6-1.6-4.8c-1.1-1.2-2.5-1.8-4.3-1.8c-1.9,0-3.4,0.7-4.6,2c-1.2,1.3-1.7,3-1.7,5.1c0,2.1,0.6,3.7,1.8,5
		c1.2,1.3,2.7,1.9,4.6,1.9c1.4,0,2.6-0.3,3.5-0.9c1-0.6,1.8-1.6,2.4-2.9l-1.6-0.9C279.6,77.9,279,78.6,278.3,79.1z M272.8,70.3
		c0.7-0.7,1.6-1,2.7-1c1.2,0,2.1,0.3,2.8,1c0.7,0.7,1.1,1.6,1.2,2.8h-8C271.6,71.9,272,71,272.8,70.3z"/>
	<path fill="#FFFFFF" d="M309.5,73.6c-1.3-0.4-2.1-0.8-2.5-1.2c-0.4-0.4-0.6-0.8-0.6-1.3c0-0.5,0.2-1,0.6-1.4
		c0.4-0.4,0.9-0.5,1.5-0.5c0.7,0,1.3,0.2,1.7,0.5c0.5,0.3,0.8,0.8,1,1.4l1.6-0.9c-0.3-0.8-0.9-1.5-1.6-2c-0.7-0.5-1.6-0.7-2.7-0.7
		c-1.2,0-2.2,0.4-3,1.1c-0.8,0.7-1.2,1.6-1.2,2.7c0,0.8,0.3,1.5,0.8,2.1c0.5,0.6,1.5,1.1,2.9,1.7c0.1,0,0.3,0.1,0.4,0.2
		c1.8,0.7,2.6,1.5,2.6,2.5c0,0.6-0.2,1.2-0.7,1.5c-0.4,0.4-1,0.6-1.8,0.6c-0.8,0-1.4-0.2-2-0.5c-0.5-0.4-0.9-0.9-1.2-1.6l-1.7,1
		c0.4,0.9,0.9,1.6,1.7,2.1c0.8,0.5,1.7,0.8,2.8,0.8c1.4,0,2.6-0.4,3.4-1.1c0.8-0.7,1.3-1.7,1.3-2.8c0-1-0.2-1.8-0.7-2.4
		C311.8,74.6,310.9,74.1,309.5,73.6z"/>
	<path fill="#FFFFFF" d="M330.1,79.1c-0.7,0.5-1.6,0.8-2.5,0.8c-1.3,0-2.4-0.5-3.2-1.4c-0.8-1-1.2-2.3-1.3-3.9h10.3v-0.4
		c0-2-0.5-3.6-1.6-4.8c-1.1-1.2-2.5-1.8-4.3-1.8c-1.9,0-3.4,0.7-4.6,2c-1.2,1.3-1.7,3-1.7,5.1c0,2.1,0.6,3.7,1.8,5
		c1.2,1.3,2.7,1.9,4.6,1.9c1.4,0,2.6-0.3,3.5-0.9c1-0.6,1.8-1.6,2.4-2.9l-1.6-0.9C331.4,77.9,330.8,78.6,330.1,79.1z M324.6,70.3
		c0.7-0.7,1.6-1,2.7-1c1.2,0,2.1,0.3,2.8,1c0.7,0.7,1.1,1.6,1.2,2.8h-8C323.4,71.9,323.8,71,324.6,70.3z"/>
	<path fill="#FFFFFF" d="M348.8,67.6c-0.8,0-1.6,0.2-2.2,0.7c-0.6,0.5-1.3,1.3-1.9,2.4V68h-1.8V81h1.8v-6.4c0-1.5,0.4-2.8,1.1-3.8
		c0.8-1,1.7-1.5,2.8-1.5c0.2,0,0.4,0,0.6,0.1c0.2,0,0.4,0.1,0.6,0.1l0.6-1.7c-0.3-0.1-0.5-0.2-0.8-0.2
		C349.3,67.6,349.1,67.6,348.8,67.6z"/>
	<polygon fill="#FFFFFF" points="361.9,77.8 357.9,68 355.9,68 361.9,81.8 367.8,68 365.8,68 	"/>
	<path fill="#FFFFFF" d="M377.3,61.6c-0.4,0-0.7,0.1-1,0.4c-0.3,0.3-0.4,0.6-0.4,1c0,0.4,0.1,0.7,0.4,1c0.3,0.3,0.6,0.4,1,0.4
		c0.4,0,0.7-0.1,1-0.4c0.3-0.3,0.4-0.6,0.4-1c0-0.4-0.1-0.7-0.4-1C378,61.8,377.7,61.6,377.3,61.6z"/>
	<rect x="376.4" y="68" fill="#FFFFFF" width="1.9" height="12.9"/>
	<polygon fill="#FFFFFF" points="397.1,68 387.2,68 387.2,69.7 394,69.7 386.7,81 397.3,81 397.3,79.4 389.9,79.4 	"/>
	<rect x="405.9" y="68" fill="#FFFFFF" width="1.9" height="12.9"/>
	<path fill="#FFFFFF" d="M406.9,61.6c-0.4,0-0.7,0.1-1,0.4c-0.3,0.3-0.4,0.6-0.4,1c0,0.4,0.1,0.7,0.4,1c0.3,0.3,0.6,0.4,1,0.4
		c0.4,0,0.7-0.1,1-0.4c0.3-0.3,0.4-0.6,0.4-1c0-0.4-0.1-0.7-0.4-1C407.6,61.8,407.2,61.6,406.9,61.6z"/>
	<path fill="#FFFFFF" d="M442.1,70.5c-0.4-0.9-1-1.6-1.8-2.1c-0.8-0.5-1.8-0.8-2.8-0.8c-1.8,0-3.3,0.6-4.4,1.9
		c-1.1,1.3-1.7,3-1.7,5.1c0,2.1,0.5,3.8,1.6,5.1c1.1,1.3,2.5,1.9,4.4,1.9c1.1,0,2-0.3,2.8-0.8c0.8-0.5,1.4-1.2,1.8-2.2v1.9v0.7
		c0,0.9,0,1.5-0.1,2c-0.1,0.4-0.2,0.8-0.5,1.1c-0.3,0.5-0.8,0.9-1.4,1.2c-0.6,0.3-1.4,0.4-2.2,0.4c-1.1,0-1.9-0.2-2.5-0.6
		c-0.6-0.4-1-1-1.1-1.8H432c0.2,1.4,0.8,2.4,1.7,3c1,0.7,2.3,1,4,1c1.4,0,2.6-0.2,3.5-0.7c0.9-0.5,1.6-1.2,2.1-2.2
		c0.2-0.4,0.4-1.1,0.5-2c0.1-0.9,0.1-2.2,0.1-3.9V68h-1.8V70.5z M440.9,78.4c-0.8,1-1.9,1.5-3.3,1.5c-1.3,0-2.3-0.5-3.1-1.4
		c-0.7-0.9-1.1-2.2-1.1-3.9c0-1.7,0.4-3,1.2-3.9c0.8-1,1.8-1.4,3.2-1.4c1.4,0,2.4,0.5,3.2,1.4c0.8,0.9,1.2,2.2,1.2,3.8
		C442.2,76.1,441.7,77.4,440.9,78.4z"/>
	<path fill="#FFFFFF" d="M462.1,79.1c-0.7,0.5-1.6,0.8-2.5,0.8c-1.3,0-2.4-0.5-3.2-1.4c-0.8-1-1.2-2.3-1.3-3.9h10.3v-0.4
		c0-2-0.5-3.6-1.6-4.8c-1.1-1.2-2.5-1.8-4.3-1.8c-1.9,0-3.4,0.7-4.6,2c-1.2,1.3-1.7,3-1.7,5.1c0,2.1,0.6,3.7,1.8,5
		c1.2,1.3,2.7,1.9,4.6,1.9c1.4,0,2.6-0.3,3.5-0.9c1-0.6,1.8-1.6,2.4-2.9l-1.6-0.9C463.5,77.9,462.9,78.6,462.1,79.1z M456.6,70.3
		c0.7-0.7,1.6-1,2.7-1c1.2,0,2.1,0.3,2.8,1c0.7,0.7,1.1,1.6,1.2,2.8h-8C455.4,71.9,455.9,71,456.6,70.3z"/>
	<path fill="#FFFFFF" d="M479,73.6c-1.3-0.4-2.1-0.8-2.5-1.2c-0.4-0.4-0.6-0.8-0.6-1.3c0-0.5,0.2-1,0.6-1.4c0.4-0.4,0.9-0.5,1.5-0.5
		c0.7,0,1.3,0.2,1.7,0.5c0.5,0.3,0.8,0.8,1,1.4l1.6-0.9c-0.3-0.8-0.9-1.5-1.6-2c-0.7-0.5-1.6-0.7-2.7-0.7c-1.2,0-2.2,0.4-3,1.1
		c-0.8,0.7-1.2,1.6-1.2,2.7c0,0.8,0.3,1.5,0.8,2.1c0.5,0.6,1.5,1.1,2.9,1.7c0.1,0,0.3,0.1,0.4,0.2c1.8,0.7,2.6,1.5,2.6,2.5
		c0,0.6-0.2,1.2-0.7,1.5c-0.4,0.4-1,0.6-1.8,0.6c-0.8,0-1.4-0.2-2-0.5c-0.5-0.4-0.9-0.9-1.2-1.6l-1.7,1c0.4,0.9,0.9,1.6,1.7,2.1
		c0.8,0.5,1.7,0.8,2.8,0.8c1.4,0,2.6-0.4,3.4-1.1c0.8-0.7,1.3-1.7,1.3-2.8c0-1-0.2-1.8-0.7-2.4C481.4,74.6,480.4,74.1,479,73.6z"/>
	<polygon fill="#FFFFFF" points="494.1,62.7 492.3,62.7 492.3,68 489.9,68 489.9,69.6 492.3,69.6 492.3,81 494.1,81 494.1,69.6 
		496.7,69.6 496.7,68 494.1,68 	"/>
	<rect x="505.1" y="68" fill="#FFFFFF" width="1.9" height="12.9"/>
	<path fill="#FFFFFF" d="M506,61.6c-0.4,0-0.7,0.1-1,0.4c-0.3,0.3-0.4,0.6-0.4,1c0,0.4,0.1,0.7,0.4,1c0.3,0.3,0.6,0.4,1,0.4
		c0.4,0,0.7-0.1,1-0.4c0.3-0.3,0.4-0.6,0.4-1c0-0.4-0.1-0.7-0.4-1C506.7,61.8,506.4,61.6,506,61.6z"/>
	<path fill="#FFFFFF" d="M528.4,69.6c-0.7-0.7-1.4-1.2-2.3-1.5c-0.9-0.3-1.8-0.5-2.7-0.5c-0.9,0-1.8,0.2-2.7,0.5s-1.6,0.9-2.3,1.5
		c-0.7,0.7-1.2,1.4-1.5,2.2c-0.3,0.8-0.5,1.7-0.5,2.7c0,1,0.2,1.8,0.5,2.7c0.3,0.8,0.8,1.6,1.5,2.2c0.7,0.7,1.5,1.2,2.3,1.6
		c0.8,0.4,1.7,0.5,2.7,0.5c0.9,0,1.8-0.2,2.7-0.5c0.9-0.4,1.6-0.9,2.3-1.6c0.7-0.7,1.2-1.4,1.5-2.2c0.4-0.8,0.5-1.7,0.5-2.7
		c0-0.9-0.2-1.8-0.5-2.7C529.6,71,529.1,70.3,528.4,69.6z M527,78.3c-1,1-2.2,1.5-3.6,1.5c-1.4,0-2.6-0.5-3.6-1.5
		c-1-1-1.5-2.3-1.5-3.8c0-1.5,0.5-2.8,1.5-3.8s2.2-1.5,3.6-1.5c1.4,0,2.6,0.5,3.6,1.5c1,1,1.5,2.3,1.5,3.8
		C528.5,76,528,77.3,527,78.3z"/>
	<path fill="#FFFFFF" d="M546.1,67.6c-1,0-1.9,0.2-2.6,0.6c-0.8,0.4-1.4,1-1.9,1.9v-2h-1.7V81h1.8v-6.8c0-1.7,0.3-3,1-3.8
		c0.6-0.8,1.7-1.2,3-1.2c1.1,0,2,0.3,2.5,0.9c0.5,0.6,0.8,1.6,0.8,2.9v8h1.8v-8.8c0-1.5-0.4-2.6-1.2-3.4
		C548.7,68,547.5,67.6,546.1,67.6z"/>
	<path fill="#FFFFFF" d="M566,81.5c1,0,2-0.3,2.7-0.8c0.8-0.5,1.4-1.2,1.8-2.2V81h1.8V68h-1.8v2.4c-0.4-0.9-1.1-1.6-1.9-2.1
		c-0.8-0.5-1.8-0.7-2.9-0.7c-1.8,0-3.2,0.7-4.3,2c-1.1,1.3-1.7,3-1.7,5.1c0,2.1,0.6,3.8,1.7,5C562.7,80.9,564.2,81.5,566,81.5z
		 M563,70.6c0.8-1,1.9-1.5,3.2-1.5s2.4,0.5,3.2,1.4c0.8,0.9,1.2,2.2,1.2,3.7c0,1.7-0.4,3.1-1.2,4.1c-0.8,1-1.9,1.5-3.2,1.5
		c-1.4,0-2.5-0.5-3.2-1.4c-0.8-0.9-1.1-2.2-1.1-3.9C561.8,72.9,562.2,71.6,563,70.6z"/>
	<rect x="582.9" y="58.4" fill="#FFFFFF" width="1.9" height="22.6"/>
	<path fill="#FFFFFF" d="M596.4,61.6c-0.4,0-0.7,0.1-1,0.4c-0.3,0.3-0.4,0.6-0.4,1c0,0.4,0.1,0.7,0.4,1c0.3,0.3,0.6,0.4,1,0.4
		c0.4,0,0.7-0.1,1-0.4c0.3-0.3,0.4-0.6,0.4-1c0-0.4-0.1-0.7-0.4-1C597.1,61.8,596.8,61.6,596.4,61.6z"/>
	<rect x="595.4" y="68" fill="#FFFFFF" width="1.9" height="12.9"/>
	<path fill="#FFFFFF" d="M132.5,30c1.8-1.4,3.1-3.1,4-5.3c0.9-2.1,1.4-4.6,1.4-7.5c0-2.7-0.5-5.1-1.4-7.2c-0.9-2.2-2.3-4-4-5.4
		c-1.5-1.3-3.3-2.1-5.4-2.7c-2.1-0.5-5.9-0.8-11.1-0.8h-13.5v47.4h12.1V32.9h2.3h2.2c4,0,6.9-0.2,8.7-0.7
		C129.6,31.8,131.2,31,132.5,30z M123.5,21.2c-1.2,0.9-3.4,1.3-6.5,1.3h-2.5V11.3h2.6c3.1,0,5.2,0.4,6.4,1.3
		c1.2,0.8,1.8,2.3,1.8,4.2C125.3,18.9,124.7,20.4,123.5,21.2z"/>
	<path fill="#FFFFFF" d="M167.2,1.1H151l-16.4,47.4h12.9l2.5-8.5h18.4l2.4,8.5h12.9L167.2,1.1z M152.8,30.9l4.8-15.7
		c0.3-1,0.6-2,0.8-3c0.3-1.1,0.5-2.2,0.8-3.3c0.4,1.7,0.7,3,1,4.1c0.3,1.1,0.5,1.8,0.6,2.3l4.8,15.7H152.8z"/>
	<path fill="#FFFFFF" d="M185.8,15.4c0,3.5,1,6.3,2.9,8.3c1.9,2,5.2,3.6,9.9,4.9c3.4,0.9,5.6,1.8,6.5,2.6c1,0.9,1.4,2.1,1.4,3.6
		c0,1.4-0.6,2.6-1.7,3.5c-1.1,0.9-2.5,1.4-4.3,1.4c-1.9,0-3.7-0.5-5.6-1.6c-1.9-1.1-3.8-2.7-5.7-4.9l-5.8,9.6
		c2.5,2.4,5.1,4.2,7.8,5.3c2.7,1.1,5.7,1.7,9,1.7c5.5,0,9.9-1.5,13.2-4.6c3.3-3.1,5-7.1,5-12.1c0-2-0.3-3.8-0.9-5.4
		c-0.6-1.6-1.4-3-2.6-4.2c-1.7-1.7-5.1-3.3-10.4-4.7l-0.6-0.2c-2.4-0.6-4.1-1.3-4.9-2c-0.9-0.7-1.3-1.7-1.3-2.9
		c0-1.2,0.5-2.1,1.5-2.9c1-0.7,2.2-1.1,3.8-1.1c1.5,0,3,0.3,4.6,1c1.5,0.6,3.1,1.6,4.5,2.8l4.1-9.3c-2.1-1.4-4.3-2.5-6.7-3.2
		c-2.3-0.7-4.8-1.1-7.4-1.1h0c-4.8,0-8.8,1.4-11.8,4.3C187.4,7.2,185.8,10.9,185.8,15.4z"/>
	<path fill="#FFFFFF" d="M223.5,15.4c0,3.5,1,6.3,2.9,8.3c1.9,2,5.2,3.6,9.9,4.9c3.4,0.9,5.6,1.8,6.5,2.6c1,0.9,1.4,2.1,1.4,3.6
		c0,1.4-0.6,2.6-1.7,3.5c-1.1,0.9-2.5,1.4-4.3,1.4c-1.9,0-3.7-0.5-5.6-1.6c-1.9-1.1-3.8-2.7-5.7-4.9l-5.8,9.6
		c2.5,2.4,5.1,4.2,7.8,5.3c2.7,1.1,5.7,1.7,9,1.7c5.5,0,9.9-1.5,13.2-4.6c3.3-3.1,5-7.1,5-12.1c0-2-0.3-3.8-0.9-5.4
		c-0.6-1.6-1.4-3-2.6-4.2c-1.7-1.7-5.1-3.3-10.4-4.7l-0.6-0.2c-2.4-0.6-4.1-1.3-4.9-2c-0.9-0.7-1.3-1.7-1.3-2.9
		c0-1.2,0.5-2.1,1.5-2.9c1-0.7,2.2-1.1,3.8-1.1c1.5,0,3,0.3,4.6,1c1.5,0.6,3.1,1.6,4.5,2.8l4.1-9.3c-2.1-1.4-4.3-2.5-6.7-3.2
		c-2.3-0.7-4.8-1.1-7.4-1.1h0c-4.8,0-8.8,1.4-11.8,4.3C225,7.2,223.5,10.9,223.5,15.4z"/>
	<polygon fill="#FFFFFF" points="291.6,38 275.1,38 275.1,29.9 290.6,29.9 290.6,19.8 275.1,19.8 275.1,11.5 291.6,11.5 291.6,1.1 
		262.5,1.1 262.5,48.6 291.6,48.6 	"/>
	<path fill="#FFFFFF" d="M311.3,32.9h2.3h2.2c4,0,6.9-0.2,8.7-0.7c1.8-0.5,3.4-1.2,4.7-2.2c1.8-1.4,3.1-3.1,4-5.3
		c0.9-2.1,1.4-4.6,1.4-7.5c0-2.7-0.5-5.1-1.4-7.2c-0.9-2.2-2.3-4-4-5.4c-1.5-1.3-3.3-2.1-5.4-2.7c-2.1-0.5-5.9-0.8-11.1-0.8h-13.5
		v47.4h12.1V32.9z M311.3,11.3h2.6c3.1,0,5.2,0.4,6.4,1.3c1.2,0.8,1.8,2.3,1.8,4.2c0,2.1-0.6,3.5-1.8,4.4c-1.2,0.9-3.4,1.3-6.5,1.3
		h-2.5V11.3z"/>
	<path fill="#FFFFFF" d="M344.3,48.6l2.5-8.5h18.4l2.4,8.5h12.9L364,1.1h-16.2l-16.4,47.4H344.3z M354.3,15.2c0.3-1,0.6-2,0.8-3
		c0.3-1.1,0.5-2.2,0.8-3.3c0.4,1.7,0.7,3,1,4.1c0.3,1.1,0.5,1.8,0.6,2.3l4.8,15.7h-12.9L354.3,15.2z"/>
	<path fill="#FFFFFF" d="M396.2,30L407,48.6h14.6l-12.9-19.1c3.5-0.8,6.1-2.3,7.9-4.6c1.8-2.3,2.7-5.3,2.7-9c0-2.4-0.5-4.6-1.4-6.6
		c-0.9-2-2.2-3.7-3.9-5c-1.5-1.1-3.3-2-5.4-2.4c-2.1-0.5-5.8-0.7-11.1-0.7H384v47.4h12.1V30z M396.2,11.1h2.6c2.8,0,4.8,0.5,6,1.5
		c1.2,1,1.8,2.7,1.8,5.1c0,2-0.6,3.5-1.9,4.5c-1.3,1-3.3,1.4-6.1,1.4h-2.4V11.1z"/>
	<polygon fill="#FFFFFF" points="432.5,48.6 445.4,48.6 445.4,12.3 456.1,12.3 456.1,1.1 421.9,1.1 421.9,12.3 432.5,12.3 	"/>
	<path fill="#FFFFFF" d="M465.7,42.6c2.4,2.3,5.1,4.1,8.2,5.4c3.1,1.3,6.3,1.9,9.7,1.9c3.4,0,6.6-0.6,9.7-1.9
		c3.1-1.3,5.9-3.1,8.3-5.4c2.4-2.4,4.2-5,5.5-8c1.3-3,1.9-6.2,1.9-9.6c0-3.4-0.6-6.6-1.9-9.6c-1.3-3-3.1-5.7-5.5-8
		c-2.4-2.3-5.1-4.1-8.2-5.4c-3.1-1.3-6.4-1.9-9.7-1.9c-3.4,0-6.6,0.6-9.7,1.9c-3.1,1.3-5.8,3.1-8.2,5.4c-2.4,2.4-4.3,5-5.6,8
		c-1.3,3-1.9,6.2-1.9,9.6c0,3.4,0.6,6.6,1.9,9.6C461.4,37.5,463.3,40.2,465.7,42.6z M474.8,15c2.3-2.6,5.3-4,8.9-4
		c3.5,0,6.5,1.3,8.9,4c2.4,2.7,3.6,6,3.6,9.9c0,4-1.2,7.3-3.5,10c-2.3,2.6-5.3,4-8.9,4c-3.7,0-6.6-1.3-8.9-3.9
		c-2.3-2.6-3.5-6-3.5-10C471.2,21,472.4,17.6,474.8,15z"/>
	<path fill="#FFFFFF" d="M520,44.1c1.6,1.9,3.9,3.4,6.7,4.3c2.8,1,6.3,1.4,10.3,1.4c4,0,7.5-0.5,10.3-1.4c2.8-1,5.1-2.4,6.7-4.3
		c1.5-1.7,2.5-3.9,3.2-6.3c0.6-2.5,0.9-6.3,0.9-11.5V1.1h-12.9V21v3.2c0,3.4-0.1,5.8-0.3,7.3c-0.2,1.5-0.5,2.7-0.9,3.7
		c-0.5,1.2-1.4,2.1-2.6,2.8c-1.2,0.6-2.7,1-4.5,1c-1.8,0-3.3-0.3-4.5-1c-1.2-0.6-2.1-1.6-2.6-2.8c-0.4-1-0.7-2.2-0.9-3.7
		c-0.2-1.5-0.3-3.9-0.3-7.3V1.1h-12.9v20.2v4.9c0,5.2,0.3,9,1,11.5C517.5,40.2,518.5,42.3,520,44.1z"/>
	<polygon fill="#FFFFFF" points="573.8,48.6 586.8,48.6 586.8,12.3 597.4,12.3 597.4,1.1 563.2,1.1 563.2,12.3 573.8,12.3 	"/>
	<path fill="#FFFFFF" d="M34.6,40.7c0.2,8.5,10.3,12,16.1,6.5c3.8-3.6,5.3-9.7,1.7-14c-1-1.1-2.2-2-3.6-2.3
		c-1.1-0.3-1.8-1.1-2.9-0.4c-0.9,0.6-1,1.7-0.7,2.6c0.8,2.3,3.7,2.9,4.5,5.1c1.4,3.8-3.2,7.3-6.6,7c-3.2-0.3-5.7-5.6-3.2-8
		c1.1-1.1,3.5-0.1,4.2-1.6c0.7-1.5-0.8-3.3-1.9-3.7C37.3,30.2,34.5,36.8,34.6,40.7z"/>
	<path fill="#FFFFFF" d="M55.7,2.7c-5.5-1.2-11.3-2-18.7-1c-4.1,0.6-10.8,2-14.7,3.5c-3.6,1.4-7,3.3-10,5.7c-4.7,4-8.2,9-10.5,14.7
		c-1,2.4-2,5.1-1.9,7.8c0,1.3-0.1,2.9,1,3.6c2.7,1.6,4.2-0.4,5.1-3c0.9-2.7,1.6-5.6,2.7-8.2C10.6,21.7,13,18,17.2,15
		C30,5.5,49.6,4.2,63.4,12.1c6.4,4.7,12,9.6,14.5,16.7c3.9,11.2,3.5,21-2.3,29.4C72,63.4,65.1,69.9,59,72.1
		c-10.8,4.8-18.7,3-27.4-0.8c-4.1-1.8-8.7-5.7-12.1-9.1c-3.4-3.4-4.5-7.3-8-10.7c-1.6-0.7-2.7-0.2-3.4,0.8c-0.6,0.9-0.7,2.2-0.7,3.4
		c4,12.8,16.3,21.6,30.3,23.9c13.3,3.2,26.1-0.9,36.4-10.6c2.5-2.4,5.5-6.2,7.1-9.2c1.6-3,3.2-5.8,4-9.1c3.6-13.8-0.9-26.7-9.7-36.1
		C69,7.7,62.8,4.3,55.7,2.7z"/>
	<path fill="#FFFFFF" d="M19.2,20.8c-1,3.2,4.4,3.8,6.3,4.8c2.9,1.4,7.9,5.1,11.3,4c3.8-1.2,0.9-8.7,0.4-11.1
		c-0.1-0.5-0.2-1.3-0.3-2.1c-0.4-2.7-1.2-6.5-3.9-5.8c-5.9,1.6,3.4,10.9,0.2,14.1C31.1,26.9,21.6,13,19.2,20.8z"/>
	<path fill="#FFFFFF" d="M55.4,15.8c-1.5,1.6-3.9,9.3-6.5,5.8c-1.8-2.4-1.5-7.3-2.8-9.9c-0.4-0.8-0.8-1.2-1.2-1.4
		c-1.5-0.7-2.9,1.6-2.7,3.7c0.3,3.9,2.5,14,7.7,13.6c4.3-0.4,10.4-7.8,11.3-12.1C61.9,10.9,56.7,14.4,55.4,15.8z"/>
	<path fill="#FFFFFF" d="M13.7,28.4c-1.9,1.2-0.1,2.6,1.1,3.7c2.6,2.3,8.4,2.1,10.1,5.3c1.4,2.7-4.3,3.8-6,4.6
		c-1.8,0.8-6.1,2.5-6,5.1c0.2,3.9,12.3-2.1,13.5-3.1c2-1.7,5.6-5.4,3.6-8.2c-1.3-1.9-3.8-2.7-5.6-4C21.7,30,17,26.3,13.7,28.4z"/>
	<path fill="#FFFFFF" d="M51.9,55.6c-1.7-1.2-4.7-3.5-6.7-1.7c-0.1,0.1-0.2,0.2-0.3,0.3c-1.4,1.5-1.4,4.5-2.2,6.3
		c-1.4,3-5.8,8-2.8,10.8c2.9,1.1,4.6-3.2,5.5-5.9c0.5-1.3,1.1-5.1,2.5-5.6c2.7-0.9,3.7,1.1,5.5,2.9c0.8,0.8,5.6,7,8.2,4.8
		C65.6,63.9,55.1,57.9,51.9,55.6z"/>
	<path fill="#FFFFFF" d="M67.7,47.1c1.4-0.3,7.4-0.1,6.2-3.6c-0.6-1.7-6.4-1-8.1-0.6c-0.2,0.1-1.6,0.3-3.2,0.6
		c-1.4,0.3-6.6,0.8-6.5,2.6c0,1.3,1.9,3.1,2.5,4.3c0.9,1.6,1.7,3.3,2.7,4.8c1.2,2,3.8,6.7,6.8,5.7c3.7-1.2-0.6-5.3-1.6-6.8
		c-1-1.5-3.2-2.3-3.8-4C61.9,47.4,66.1,47.4,67.7,47.1z"/>
	<path fill="#FFFFFF" d="M66.1,21.5c-2.2,1.2-3.6,3.9-4.7,5.8c-0.3,0.5-0.6,0.9-0.9,1.4c-1.1,1.7-2.4,3.4-2.3,5.5
		c0.1,1.7,3.3,2.1,4.5,2.5c3,1,6.4,0.9,9.7,0.7c1.4-0.1,4-1.3,2.9-2.8c-2.1-2.8-11.9,0.2-11.8-2.3c0.1-1.7,5.5-5.9,5.4-9.2
		C68.7,21.5,67.7,20.6,66.1,21.5z"/>
	<path fill="#FFFFFF" d="M28.4,65.9c0.7,2.4,2.3,2.9,4.4-0.5c1.2-2,1.8-4.3,2.4-6.5c1-3.8,5-9-0.6-9.9c-3.8-0.6-8,2.2-11.9,1.9
		c-2.2-0.2-4.6,2.4-2.8,4.2c1.9,1.5,5.7,0.2,7.7-0.5c2.1-0.7,5.7-2.2,4.9,0.8C31.7,58.4,27.4,62.4,28.4,65.9z"/>
	<rect x="634.8" fill="#FFFFFF" width="3" height="87.5"/>
	<path fill="#FFFFFF" d="M701.9,54.1c-0.6,0.2-1.6,0.4-3,0.6c-1.4,0.2-3,0.3-5,0.3c-2.8,0-5.1-0.5-7.2-1.4c-2-0.9-3.7-2.3-5.1-4
		c-1.4-1.7-2.4-3.7-3.1-6.1c-0.7-2.4-1-5-1-7.9c0-3,0.4-5.7,1.2-8.1c0.8-2.4,1.9-4.4,3.3-6.1c1.4-1.7,3.1-3,5.2-3.9
		c2-0.9,4.3-1.3,6.8-1.3c2.3,0,4.6,0.3,6.9,0.9c2.2,0.6,4,1.3,5.4,2.2l2.2-5.7c-0.3-0.2-0.8-0.5-1.6-0.8c-0.8-0.4-1.8-0.7-3-1.1
		c-1.2-0.4-2.7-0.7-4.4-1c-1.7-0.3-3.7-0.4-5.8-0.4c-3.2,0-6.2,0.6-9.1,1.7c-2.8,1.1-5.3,2.8-7.4,4.9c-2.1,2.1-3.8,4.8-5,7.9
		c-1.2,3.1-1.9,6.8-1.9,10.8s0.5,7.7,1.6,10.8c1.1,3.1,2.6,5.8,4.7,7.9c2,2.1,4.4,3.8,7.2,4.9c2.8,1.1,5.9,1.7,9.3,1.7
		c1.7,0,3.3-0.1,5-0.2c1.6-0.2,3.1-0.4,4.5-0.6c1.4-0.2,2.6-0.5,3.6-0.7c1-0.2,1.9-0.4,2.4-0.6V36.1h-6.8V54.1z"/>
	<path fill="#FFFFFF" d="M734.9,22.6c-2.1,0-4.2,0.4-6.2,1.2c-2,0.8-3.8,2-5.3,3.6c-1.5,1.6-2.8,3.6-3.7,6c-0.9,2.4-1.4,5.2-1.4,8.4
		c0,2.8,0.4,5.3,1.1,7.6c0.7,2.3,1.8,4.3,3.3,6c1.5,1.7,3.4,3,5.7,4c2.3,1,5.1,1.4,8.2,1.4c2.5,0,4.8-0.2,6.8-0.7
		c2-0.5,3.4-0.9,4.2-1.3l-0.9-5.5c-0.8,0.4-2,0.8-3.5,1.2c-1.6,0.4-3.5,0.6-5.8,0.6c-4.1,0-7-1-9-2.9c-1.9-2-3-4.8-3.3-8.6H750
		c0-0.4,0.1-0.8,0.1-1.2c0-0.4,0-0.8,0-1.1c0-6.3-1.3-10.9-3.9-14C743.5,24.1,739.7,22.6,734.9,22.6z M725.2,38.2
		c0.1-1.3,0.4-2.5,0.9-3.7c0.4-1.2,1.1-2.3,1.9-3.2c0.8-0.9,1.8-1.7,2.9-2.3c1.1-0.6,2.5-0.9,4-0.9c2.7,0,4.7,0.9,6.3,2.8
		c1.5,1.9,2.2,4.3,2.2,7.2H725.2z"/>
	<path fill="#FFFFFF" d="M780.7,43.1c-1-0.8-2.1-1.6-3.5-2.2s-2.9-1.3-4.6-1.9c-1.3-0.5-2.4-0.9-3.4-1.3c-0.9-0.4-1.7-0.9-2.3-1.4
		c-0.6-0.5-1.1-1-1.4-1.6c-0.3-0.6-0.5-1.3-0.5-2.1c0-1.5,0.7-2.7,2-3.4c1.4-0.7,2.9-1.1,4.8-1.1c2.1,0,3.9,0.2,5.4,0.6
		c1.5,0.4,2.6,0.8,3.3,1.2l1.2-5.6c-0.4-0.1-0.9-0.3-1.6-0.5c-0.7-0.2-1.5-0.4-2.3-0.5c-0.9-0.2-1.8-0.3-2.9-0.4
		c-1-0.1-2.1-0.2-3.1-0.2c-4.1,0-7.4,0.9-9.7,2.8s-3.6,4.4-3.6,7.7c0,1.6,0.3,3,0.8,4.1c0.6,1.1,1.3,2.1,2.2,2.9
		c0.9,0.8,2,1.5,3.3,2.1c1.3,0.6,2.6,1.2,4,1.7c2.9,1.2,5,2.2,6.2,3.1c1.3,0.9,1.9,2.2,1.9,3.8c0,1.5-0.6,2.7-1.9,3.4
		c-1.3,0.7-3.3,1.1-5.9,1.1c-2.7,0-4.9-0.3-6.5-0.8c-1.6-0.6-2.8-1-3.6-1.3l-1.2,5.6c0.7,0.3,1.9,0.7,3.7,1.2
		c1.8,0.5,4.3,0.8,7.6,0.8c4.6,0,8.2-0.9,10.7-2.6c2.5-1.7,3.7-4.3,3.7-7.6c0-1.7-0.3-3.2-0.8-4.4S781.7,44,780.7,43.1z"/>
	<path fill="#FFFFFF" d="M811,54.3c-1.2,0.4-2.8,0.7-4.7,0.7c-1.1,0-2.1-0.1-2.9-0.4c-0.8-0.3-1.5-0.8-2.1-1.4
		c-0.6-0.7-1-1.6-1.3-2.8c-0.3-1.2-0.4-2.7-0.4-4.5V29h13.8v-5.5h-13.8V12.3l-6.5,1.1v32.5c0,2.4,0.2,4.6,0.6,6.4
		c0.4,1.8,1.1,3.4,2.1,4.7c1,1.3,2.3,2.2,3.9,2.8c1.6,0.6,3.7,0.9,6.1,0.9c2.1,0,4-0.2,5.6-0.7c1.6-0.5,2.8-0.9,3.4-1.2l-1.3-5.4
		C813,53.5,812.2,53.8,811,54.3z"/>
	<path fill="#FFFFFF" d="M826.2,8.4c-1.2,0-2.2,0.4-3,1.2c-0.8,0.8-1.2,1.8-1.2,3.1c0,1.3,0.4,2.3,1.2,3.1c0.8,0.8,1.8,1.2,3,1.2
		c1.2,0,2.2-0.4,3-1.2c0.8-0.8,1.2-1.8,1.2-3.1c0-1.3-0.4-2.3-1.2-3.1C828.4,8.8,827.4,8.4,826.2,8.4z"/>
	<rect x="823" y="23.5" fill="#FFFFFF" width="6.5" height="36.4"/>
	<path fill="#FFFFFF" d="M869.4,27.9c-1.5-1.7-3.3-3-5.4-3.9c-2.1-0.9-4.4-1.4-6.9-1.4c-2.5,0-4.8,0.5-6.9,1.4
		c-2.1,0.9-3.9,2.2-5.4,3.9c-1.5,1.7-2.7,3.7-3.5,6.1c-0.8,2.4-1.3,5-1.3,7.8c0,2.9,0.4,5.5,1.3,7.8c0.8,2.3,2,4.3,3.5,6
		c1.5,1.7,3.3,3,5.4,3.9s4.4,1.4,6.9,1.4c2.5,0,4.8-0.5,6.9-1.4c2.1-0.9,3.9-2.2,5.4-3.9c1.5-1.7,2.7-3.7,3.5-6
		c0.8-2.3,1.3-4.9,1.3-7.8c0-2.8-0.4-5.4-1.3-7.8C872.1,31.6,870.9,29.5,869.4,27.9z M864.7,51.5c-1.8,2.4-4.4,3.6-7.5,3.6
		c-3.2,0-5.7-1.2-7.5-3.6c-1.8-2.4-2.8-5.7-2.8-9.8c0-4.1,0.9-7.4,2.8-9.8c1.8-2.4,4.4-3.6,7.5-3.6c3.2,0,5.7,1.2,7.5,3.6
		c1.8,2.4,2.8,5.7,2.8,9.8C867.4,45.8,866.5,49.1,864.7,51.5z"/>
	<path fill="#FFFFFF" d="M911.1,27.4c-1.1-1.5-2.7-2.6-4.6-3.4c-1.9-0.8-4.3-1.2-7.2-1.2c-3.2,0-6.1,0.2-8.5,0.6s-4.5,0.8-6,1.2
		v35.4h6.5V29.2c0.2,0,0.6-0.1,1.2-0.2c0.5-0.1,1.1-0.2,1.8-0.2c0.7-0.1,1.4-0.1,2.1-0.2c0.7,0,1.5-0.1,2.2-0.1
		c1.7,0,3.2,0.2,4.3,0.7c1.2,0.4,2.1,1.2,2.8,2.1s1.2,2.3,1.5,3.9c0.3,1.6,0.5,3.5,0.5,5.7v19h6.5V39.5c0-2.5-0.2-4.7-0.7-6.8
		C913,30.6,912.2,28.9,911.1,27.4z"/>
	<path fill="#FFFFFF" d="M940.9,22.6c-2.1,0-4.2,0.4-6.2,1.2c-2,0.8-3.8,2-5.3,3.6c-1.5,1.6-2.8,3.6-3.7,6c-0.9,2.4-1.4,5.2-1.4,8.4
		c0,2.8,0.4,5.3,1.1,7.6c0.7,2.3,1.8,4.3,3.3,6c1.5,1.7,3.4,3,5.7,4c2.3,1,5.1,1.4,8.2,1.4c2.5,0,4.8-0.2,6.8-0.7
		c2-0.5,3.4-0.9,4.2-1.3l-0.9-5.5c-0.8,0.4-2,0.8-3.5,1.2c-1.6,0.4-3.5,0.6-5.8,0.6c-4.1,0-7-1-9-2.9c-1.9-2-3-4.8-3.3-8.6H956
		c0-0.4,0.1-0.8,0.1-1.2c0-0.4,0-0.8,0-1.1c0-6.3-1.3-10.9-3.9-14C949.6,24.1,945.8,22.6,940.9,22.6z M931.3,38.2
		c0.1-1.3,0.4-2.5,0.9-3.7c0.4-1.2,1.1-2.3,1.9-3.2c0.8-0.9,1.8-1.7,2.9-2.3c1.1-0.6,2.5-0.9,4-0.9c2.7,0,4.7,0.9,6.3,2.8
		c1.5,1.9,2.2,4.3,2.2,7.2H931.3z"/>
	<path fill="#FFFFFF" d="M1007.2,26.5c-1.1-1.2-2.5-2.2-4.3-2.9c-1.8-0.7-4-1-6.6-1c-2.3,0-4.4,0.2-6.4,0.5c-2,0.4-3.4,0.7-4.2,1.1
		l0.8,5.4c0.8-0.3,2-0.6,3.6-0.9c1.6-0.3,3.5-0.5,5.6-0.5c1.7,0,3,0.2,4.1,0.7c1.1,0.5,1.9,1.1,2.5,2c0.6,0.8,1,1.8,1.3,2.8
		c0.2,1,0.4,2.1,0.4,3.2v1.8c-0.2,0-0.5-0.1-1-0.2c-0.5-0.1-1-0.2-1.6-0.3c-0.6-0.1-1.3-0.2-2-0.3c-0.7-0.1-1.4-0.1-2-0.1
		c-2.1,0-4,0.2-5.9,0.6c-1.9,0.4-3.5,1.1-4.9,2c-1.4,0.9-2.5,2.1-3.3,3.5c-0.8,1.4-1.2,3.2-1.2,5.2c0,2.1,0.4,3.9,1,5.4
		c0.7,1.5,1.7,2.7,2.9,3.6s2.8,1.6,4.5,2c1.7,0.4,3.6,0.6,5.7,0.6c1.4,0,2.9-0.1,4.4-0.2c1.5-0.1,2.8-0.2,4.1-0.4s2.4-0.3,3.4-0.5
		c1-0.2,1.8-0.3,2.3-0.4V36.5c0-2.1-0.2-3.9-0.7-5.6C1009.1,29.2,1008.3,27.7,1007.2,26.5z M1003.9,54.7c-0.8,0.2-1.8,0.3-3,0.4
		c-1.2,0.1-2.6,0.1-4.1,0.1c-2.6,0-4.6-0.5-6.1-1.4c-1.5-0.9-2.2-2.5-2.2-4.9c0-1.3,0.3-2.3,0.9-3c0.6-0.8,1.4-1.4,2.3-1.8
		c0.9-0.4,1.9-0.7,3-0.9c1.1-0.1,2.1-0.2,3.1-0.2c1.5,0,2.8,0.1,3.8,0.2c1,0.2,1.8,0.4,2.3,0.6V54.7z"/>
	<path fill="#FFFFFF" d="M1043.8,54.5c-1.4,0.3-3,0.5-4.7,0.5c-2.1,0-4-0.3-5.5-0.9c-1.5-0.6-2.7-1.5-3.7-2.7
		c-1-1.2-1.7-2.6-2.1-4.2c-0.4-1.6-0.7-3.4-0.7-5.4c0-4.4,1-7.7,2.9-10c1.9-2.3,4.7-3.4,8.4-3.4c1.4,0,2.8,0.1,4.1,0.4
		c1.3,0.3,2.4,0.7,3.4,1.1l1.5-5.5c-1.5-0.6-3.1-1-4.7-1.3c-1.6-0.3-3.3-0.4-4.9-0.4c-2.7,0-5.1,0.5-7.2,1.4c-2.2,1-4,2.3-5.5,4
		c-1.5,1.7-2.6,3.7-3.5,6.1c-0.8,2.3-1.2,4.9-1.2,7.7c0,2.8,0.4,5.4,1.1,7.7c0.7,2.3,1.9,4.3,3.4,6c1.5,1.7,3.4,3,5.6,3.9
		s4.8,1.4,7.7,1.4c0.9,0,1.9-0.1,2.9-0.2c1-0.1,1.9-0.3,2.8-0.4c0.9-0.2,1.7-0.4,2.4-0.6s1.2-0.4,1.6-0.7l-0.9-5.5
		C1046.3,53.9,1045.2,54.2,1043.8,54.5z"/>
	<path fill="#FFFFFF" d="M1077.7,54.5c-1.4,0.3-3,0.5-4.7,0.5c-2.1,0-4-0.3-5.5-0.9c-1.5-0.6-2.7-1.5-3.7-2.7
		c-1-1.2-1.7-2.6-2.1-4.2c-0.4-1.6-0.7-3.4-0.7-5.4c0-4.4,1-7.7,2.9-10c1.9-2.3,4.7-3.4,8.4-3.4c1.4,0,2.8,0.1,4.1,0.4
		c1.3,0.3,2.4,0.7,3.4,1.1l1.5-5.5c-1.5-0.6-3.1-1-4.7-1.3c-1.6-0.3-3.3-0.4-4.9-0.4c-2.7,0-5.1,0.5-7.2,1.4c-2.2,1-4,2.3-5.5,4
		c-1.5,1.7-2.6,3.7-3.5,6.1c-0.8,2.3-1.2,4.9-1.2,7.7c0,2.8,0.4,5.4,1.1,7.7c0.7,2.3,1.9,4.3,3.4,6c1.5,1.7,3.4,3,5.6,3.9
		s4.8,1.4,7.7,1.4c0.9,0,1.9-0.1,2.9-0.2c1-0.1,1.9-0.3,2.8-0.4c0.9-0.2,1.7-0.4,2.4-0.6s1.2-0.4,1.6-0.7l-0.9-5.5
		C1080.2,53.9,1079.1,54.2,1077.7,54.5z"/>
	<path fill="#FFFFFF" d="M1116.7,27.9c-1.5-1.7-3.3-3-5.4-3.9c-2.1-0.9-4.4-1.4-6.9-1.4c-2.5,0-4.8,0.5-6.9,1.4
		c-2.1,0.9-3.9,2.2-5.4,3.9c-1.5,1.7-2.7,3.7-3.5,6.1c-0.8,2.4-1.3,5-1.3,7.8c0,2.9,0.4,5.5,1.3,7.8c0.8,2.3,2,4.3,3.5,6
		c1.5,1.7,3.3,3,5.4,3.9s4.4,1.4,6.9,1.4c2.5,0,4.8-0.5,6.9-1.4c2.1-0.9,3.9-2.2,5.4-3.9c1.5-1.7,2.7-3.7,3.5-6
		c0.8-2.3,1.3-4.9,1.3-7.8c0-2.8-0.4-5.4-1.3-7.8C1119.4,31.6,1118.2,29.5,1116.7,27.9z M1112,51.5c-1.8,2.4-4.4,3.6-7.5,3.6
		c-3.2,0-5.7-1.2-7.5-3.6c-1.8-2.4-2.8-5.7-2.8-9.8c0-4.1,0.9-7.4,2.8-9.8c1.8-2.4,4.4-3.6,7.5-3.6c3.2,0,5.7,1.2,7.5,3.6
		c1.8,2.4,2.8,5.7,2.8,9.8C1114.7,45.8,1113.8,49.1,1112,51.5z"/>
	<path fill="#FFFFFF" d="M1154.6,54.3c-0.2,0.1-0.6,0.2-1.2,0.2c-0.5,0.1-1.1,0.1-1.8,0.2c-0.7,0.1-1.4,0.1-2.1,0.2
		c-0.7,0-1.5,0.1-2.2,0.1c-3.3,0-5.7-1-7.1-2.9c-1.4-1.9-2.1-5.1-2.1-9.5v-19h-6.5V44c0,2.5,0.3,4.7,0.8,6.8c0.5,2,1.4,3.8,2.5,5.3
		c1.2,1.5,2.7,2.6,4.6,3.5c1.9,0.8,4.3,1.2,7.1,1.2c3.2,0,6.1-0.2,8.5-0.6s4.4-0.8,5.9-1.2V23.5h-6.5V54.3z"/>
	<path fill="#FFFFFF" d="M1200,27.4c-1.1-1.5-2.7-2.6-4.6-3.4c-1.9-0.8-4.3-1.2-7.2-1.2c-3.2,0-6.1,0.2-8.5,0.6s-4.5,0.8-6,1.2v35.4
		h6.5V29.2c0.2,0,0.6-0.1,1.2-0.2c0.5-0.1,1.1-0.2,1.8-0.2c0.7-0.1,1.4-0.1,2.1-0.2c0.7,0,1.5-0.1,2.2-0.1c1.7,0,3.2,0.2,4.3,0.7
		c1.2,0.4,2.1,1.2,2.8,2.1s1.2,2.3,1.5,3.9c0.3,1.6,0.5,3.5,0.5,5.7v19h6.5V39.5c0-2.5-0.2-4.7-0.7-6.8
		C1201.9,30.6,1201.1,28.9,1200,27.4z"/>
	<path fill="#FFFFFF" d="M1235.3,53.3c-0.5,0.2-1.3,0.5-2.5,0.9c-1.2,0.4-2.8,0.7-4.7,0.7c-1.1,0-2.1-0.1-2.9-0.4
		c-0.8-0.3-1.5-0.8-2.1-1.4c-0.6-0.7-1-1.6-1.3-2.8c-0.3-1.2-0.4-2.7-0.4-4.5V29h13.8v-5.5h-13.8V12.3l-6.5,1.1v32.5
		c0,2.4,0.2,4.6,0.6,6.4c0.4,1.8,1.1,3.4,2.1,4.7c1,1.3,2.3,2.2,3.9,2.8c1.6,0.6,3.7,0.9,6.1,0.9c2.1,0,4-0.2,5.6-0.7
		c1.6-0.5,2.8-0.9,3.4-1.2L1235.3,53.3z"/>
</g>
</svg>
