<svg xmlns="http://www.w3.org/2000/svg" xmlns:xlink="http://www.w3.org/1999/xlink" width="243.488" height="31.926" viewBox="0 0 243.488 31.926">
  <defs>
    <clipPath id="clip-path">
      <rect id="Rettangolo_22" data-name="Rettangolo 22" width="243.488" height="31.926" fill="none"/>
    </clipPath>
  </defs>
  <g id="Disegno_35" data-name="Disegno 35" transform="translate(121.744 15.963)">
    <g id="Raggruppa_44" data-name="Raggruppa 44" transform="translate(-121.744 -15.963)">
      <path id="Tracciato_33" data-name="Tracciato 33" d="M811.834,67.677a2.4,2.4,0,0,1,.859.113.783.783,0,0,1,.488.8.686.686,0,0,1-.309.621,1.213,1.213,0,0,1-.457.152.77.77,0,0,1,.543.308.877.877,0,0,1,.172.488v.23c0,.073,0,.151.007.235a.49.49,0,0,0,.027.164l.02.039h-.519c0-.011-.006-.021-.009-.031s-.005-.022-.007-.035l-.011-.1v-.25a.774.774,0,0,0-.3-.722,1.329,1.329,0,0,0-.617-.1h-.438v1.242h-.554V67.677Zm.592.5a1.422,1.422,0,0,0-.668-.117h-.472V69.2h.5a1.488,1.488,0,0,0,.527-.071.486.486,0,0,0,.325-.492.479.479,0,0,0-.212-.461Zm1.492,3.12a2.872,2.872,0,1,1,.839-2.034,2.761,2.761,0,0,1-.839,2.034Zm-3.773-3.78a2.382,2.382,0,0,0-.718,1.746,2.416,2.416,0,0,0,.714,1.757,2.461,2.461,0,0,0,3.491,0,2.414,2.414,0,0,0,.719-1.757,2.461,2.461,0,0,0-4.206-1.746Z" transform="translate(-571.27 -46.886)" fill="#fff" fill-rule="evenodd"/>
      <path id="Tracciato_34" data-name="Tracciato 34" d="M144.8,30.386h.989a4.833,4.833,0,0,0,2.616-.514,1.977,1.977,0,0,0,.742-1.751,1.931,1.931,0,0,0-.729-1.705,4.752,4.752,0,0,0-2.577-.508H144.8v4.478Zm0,10.478h-4.868V21.808h5.428a21.757,21.757,0,0,1,4.478.312,5.274,5.274,0,0,1,2.187,1.067,5.629,5.629,0,0,1,1.608,2.18,7.4,7.4,0,0,1,.553,2.909,7.662,7.662,0,0,1-.547,3,5.228,5.228,0,0,1-1.614,2.128,5.069,5.069,0,0,1-1.9.9,15.951,15.951,0,0,1-3.5.273H144.8v6.287Z" transform="translate(-98.808 -15.399)" fill="#fff"/>
      <path id="Tracciato_35" data-name="Tracciato 35" d="M191.292,33.744h5.168l-1.94-6.287q-.091-.286-.247-.924t-.4-1.64q-.17.7-.332,1.341t-.332,1.223l-1.913,6.287Zm-7.276,7.12,6.573-19.056H197.1l6.586,19.056h-5.168l-.963-3.41h-7.38l-.989,3.41Z" transform="translate(-129.937 -15.399)" fill="#fff"/>
      <path id="Tracciato_36" data-name="Tracciato 36" d="M253.12,33.613a9.416,9.416,0,0,0,2.285,1.965,4.452,4.452,0,0,0,2.245.651,2.58,2.58,0,0,0,1.712-.56,1.769,1.769,0,0,0,.67-1.419,1.857,1.857,0,0,0-.579-1.464,7.336,7.336,0,0,0-2.623-1.061,8.551,8.551,0,0,1-3.957-1.966,4.6,4.6,0,0,1-1.159-3.319,5.852,5.852,0,0,1,1.829-4.458,6.633,6.633,0,0,1,4.744-1.725,10.367,10.367,0,0,1,2.987.423,9.673,9.673,0,0,1,2.675,1.282L262.322,25.7a6.843,6.843,0,0,0-1.816-1.139,4.811,4.811,0,0,0-1.842-.384,2.434,2.434,0,0,0-1.523.449,1.39,1.39,0,0,0-.586,1.152,1.417,1.417,0,0,0,.514,1.146,5.57,5.57,0,0,0,1.985.82l.234.065a9.725,9.725,0,0,1,4.178,1.887A4.656,4.656,0,0,1,264.5,31.38a6.442,6.442,0,0,1,.351,2.18,6.324,6.324,0,0,1-1.991,4.875,7.511,7.511,0,0,1-5.311,1.842,9.385,9.385,0,0,1-3.625-.677,10.258,10.258,0,0,1-3.143-2.122l2.343-3.866Z" transform="translate(-177.078 -14.305)" fill="#fff"/>
      <path id="Tracciato_37" data-name="Tracciato 37" d="M304.556,33.613a9.41,9.41,0,0,0,2.284,1.965,4.452,4.452,0,0,0,2.245.651,2.58,2.58,0,0,0,1.712-.56,1.769,1.769,0,0,0,.67-1.419,1.857,1.857,0,0,0-.579-1.464,7.331,7.331,0,0,0-2.623-1.061,8.55,8.55,0,0,1-3.957-1.966,4.6,4.6,0,0,1-1.158-3.319,5.852,5.852,0,0,1,1.829-4.458,6.634,6.634,0,0,1,4.744-1.725,10.368,10.368,0,0,1,2.987.423,9.666,9.666,0,0,1,2.675,1.282L313.758,25.7a6.847,6.847,0,0,0-1.816-1.139,4.81,4.81,0,0,0-1.842-.384,2.434,2.434,0,0,0-1.523.449,1.39,1.39,0,0,0-.586,1.152,1.417,1.417,0,0,0,.514,1.146,5.566,5.566,0,0,0,1.985.82l.234.065a9.729,9.729,0,0,1,4.178,1.887,4.661,4.661,0,0,1,1.028,1.685,6.442,6.442,0,0,1,.352,2.18,6.324,6.324,0,0,1-1.992,4.875,7.51,7.51,0,0,1-5.31,1.842,9.384,9.384,0,0,1-3.625-.677,10.259,10.259,0,0,1-3.144-2.122l2.343-3.866Z" transform="translate(-213.398 -14.305)" fill="#fff"/>
      <path id="Tracciato_38" data-name="Tracciato 38" d="M358.743,40.864V21.808h11.676v4.178h-6.612v3.306h6.235V33.38h-6.235v3.215h6.612v4.269Z" transform="translate(-253.315 -15.399)" fill="#fff"/>
      <path id="Tracciato_39" data-name="Tracciato 39" d="M413.763,30.386h.989a4.829,4.829,0,0,0,2.616-.514,1.977,1.977,0,0,0,.743-1.751,1.931,1.931,0,0,0-.729-1.705,4.755,4.755,0,0,0-2.578-.508h-1.041v4.478Zm0,10.478H408.9V21.808h5.428a21.772,21.772,0,0,1,4.478.312,5.272,5.272,0,0,1,2.186,1.067,5.632,5.632,0,0,1,1.608,2.18,7.391,7.391,0,0,1,.553,2.909,7.667,7.667,0,0,1-.546,3,5.225,5.225,0,0,1-1.614,2.128,5.069,5.069,0,0,1-1.9.9,15.952,15.952,0,0,1-3.5.273h-1.823v6.287Z" transform="translate(-288.728 -15.399)" fill="#fff"/>
      <path id="Tracciato_40" data-name="Tracciato 40" d="M460.253,33.744h5.168l-1.94-6.287q-.091-.286-.248-.924t-.4-1.64q-.169.7-.332,1.341t-.332,1.223l-1.914,6.287Zm-7.276,7.12,6.574-19.056h6.508l6.586,19.056h-5.167l-.963-3.41h-7.381l-.989,3.41Z" transform="translate(-319.855 -15.399)" fill="#fff"/>
      <path id="Tracciato_41" data-name="Tracciato 41" d="M529.7,30.816h.963a4.167,4.167,0,0,0,2.454-.573,2.088,2.088,0,0,0,.774-1.8,2.528,2.528,0,0,0-.722-2.037,3.807,3.807,0,0,0-2.428-.605H529.7v5.012Zm-4.868,10.048V21.808h5.427a22.621,22.621,0,0,1,4.446.293,5.673,5.673,0,0,1,2.168.983,5.155,5.155,0,0,1,1.581,1.991,6.359,6.359,0,0,1,.553,2.668,5.667,5.667,0,0,1-1.087,3.6,5.294,5.294,0,0,1-3.169,1.842l5.193,7.68h-5.871L529.7,33.405v7.458Z" transform="translate(-370.594 -15.399)" fill="#fff"/>
      <path id="Tracciato_42" data-name="Tracciato 42" d="M580.8,40.864V26.312h-4.27v-4.5h13.732v4.5H586V40.864Z" transform="translate(-407.1 -15.399)" fill="#fff"/>
      <path id="Tracciato_43" data-name="Tracciato 43" d="M636.479,35.94a4.573,4.573,0,0,0,3.573-1.588,5.808,5.808,0,0,0,1.413-4.009,5.773,5.773,0,0,0-1.431-4,4.772,4.772,0,0,0-7.127-.007,5.814,5.814,0,0,0-1.413,4,5.84,5.84,0,0,0,1.393,4.022,4.573,4.573,0,0,0,3.592,1.575Zm10.179-5.6a9.687,9.687,0,0,1-2.955,7.068,10.391,10.391,0,0,1-3.331,2.167,10.379,10.379,0,0,1-7.8,0,9.97,9.97,0,0,1-3.286-2.167,9.655,9.655,0,0,1-2.233-3.228,10.082,10.082,0,0,1,0-7.686,9.677,9.677,0,0,1,2.233-3.222,9.97,9.97,0,0,1,3.286-2.167,10.423,10.423,0,0,1,7.823,0,10.074,10.074,0,0,1,3.313,2.167,9.751,9.751,0,0,1,2.955,7.068Z" transform="translate(-442.233 -14.367)" fill="#fff"/>
      <path id="Tracciato_44" data-name="Tracciato 44" d="M705.007,21.808h5.181v9.268a28.664,28.664,0,0,0,.1,2.935,5.712,5.712,0,0,0,.352,1.49,2.147,2.147,0,0,0,1.041,1.113,4.443,4.443,0,0,0,3.613,0,2.214,2.214,0,0,0,1.047-1.113,5.7,5.7,0,0,0,.352-1.49,28.678,28.678,0,0,0,.1-2.935V21.808h5.167V31.883a20.485,20.485,0,0,1-.378,4.627,6.207,6.207,0,0,1-1.275,2.544,5.879,5.879,0,0,1-2.681,1.738,15.11,15.11,0,0,1-8.285,0,5.97,5.97,0,0,1-2.688-1.738,6.366,6.366,0,0,1-1.269-2.544,20.271,20.271,0,0,1-.384-4.627V21.808Z" transform="translate(-497.818 -15.399)" fill="#fff"/>
      <path id="Tracciato_45" data-name="Tracciato 45" d="M773.956,40.864V26.312h-4.27v-4.5h13.732v4.5h-4.27V40.864Z" transform="translate(-543.489 -15.399)" fill="#fff"/>
      <g id="Raggruppa_43" data-name="Raggruppa 43">
        <g id="Raggruppa_42" data-name="Raggruppa 42" clip-path="url(#clip-path)">
          <path id="Tracciato_46" data-name="Tracciato 46" d="M53.785,46.3A3.818,3.818,0,0,1,47.3,43.689c-.031-1.536,1.062-4.206,3.063-3.569.451.143,1.04.894.768,1.488-.279.609-1.244.214-1.689.642-1.014.977,0,3.1,1.287,3.217,1.364.126,3.21-1.275,2.646-2.8-.321-.873-1.492-1.126-1.805-2.036a.874.874,0,0,1,.283-1.052c.445-.278.736.059,1.16.163a2.816,2.816,0,0,1,1.462.939c1.441,1.707.819,4.193-.692,5.619Z" transform="translate(-33.4 -27.868)" fill="#fff"/>
          <path id="Tracciato_47" data-name="Tracciato 47" d="M29.776,27.223c-4.148,3.9-9.262,5.563-14.615,4.271C9.524,30.6,4.6,27.037,2.992,21.9a2.524,2.524,0,0,1,.27-1.356,1,1,0,0,1,1.367-.34c1.376,1.349,1.835,2.936,3.195,4.291a18.149,18.149,0,0,0,4.844,3.642c3.494,1.531,6.688,2.234,11.023.318,2.456-.878,5.213-3.517,6.656-5.6,2.335-3.365,2.519-7.313.94-11.794C30.277,8.2,28.028,6.242,25.444,4.343A17.747,17.747,0,0,0,6.905,5.518,9.922,9.922,0,0,0,3.536,9.848c-.459,1.039-.734,2.215-1.1,3.293S1.464,14.986.39,14.354c-.441-.26-.381-.928-.39-1.431A8.119,8.119,0,0,1,.773,9.788a14.973,14.973,0,0,1,4.221-5.9A14.229,14.229,0,0,1,9,1.582a31.374,31.374,0,0,1,5.885-1.4,20.456,20.456,0,0,1,7.5.391A15.005,15.005,0,0,1,30.347,5.4a15.206,15.206,0,0,1,3.916,14.481,16.3,16.3,0,0,1-1.617,3.638,16.428,16.428,0,0,1-2.87,3.7Z" transform="translate(0 0)" fill="#fff"/>
        </g>
      </g>
      <path id="Tracciato_48" data-name="Tracciato 48" d="M33.259,14.871c.05.353.083.662.119.855.191.991,1.351,3.978-.179,4.472-1.364.44-3.392-1.048-4.544-1.626-.781-.392-2.941-.623-2.542-1.916.969-3.135,4.773,2.478,5.69,1.533,1.261-1.3-2.477-5.023-.094-5.66,1.081-.289,1.395,1.238,1.549,2.34Z" transform="translate(-18.405 -8.823)" fill="#fff"/>
      <path id="Tracciato_49" data-name="Tracciato 49" d="M58.661,12.134a1.234,1.234,0,0,1,.493.577c.536,1.059.424,3.041,1.13,3.993,1.029,1.387,2.012-1.683,2.6-2.334.525-.576,2.643-1.959,2.3-.162-.335,1.73-2.812,4.722-4.526,4.867-2.082.177-2.937-3.881-3.073-5.446-.074-.854.487-1.789,1.076-1.5Z" transform="translate(-40.657 -8.529)" fill="#fff"/>
      <path id="Tracciato_50" data-name="Tracciato 50" d="M24.4,39.432c.8,1.139-.641,2.624-1.443,3.288-.478.4-5.342,2.792-5.414,1.238-.047-1.026,1.673-1.7,2.4-2.036.649-.3,2.964-.756,2.4-1.83-.68-1.285-3.006-1.219-4.041-2.128-.468-.41-1.211-.971-.44-1.471,1.341-.869,3.242.612,4.289,1.342a8.273,8.273,0,0,1,2.252,1.6Z" transform="translate(-12.377 -25.581)" fill="#fff"/>
      <path id="Tracciato_51" data-name="Tracciato 51" d="M55.577,71.318a1.281,1.281,0,0,1,.1-.1c.812-.707,2.021.205,2.695.7,1.27.934,5.509,3.333,3.92,4.7-1.033.889-2.966-1.593-3.3-1.912-.732-.7-1.1-1.524-2.2-1.149-.545.185-.814,1.7-1.006,2.245-.39,1.1-1.051,2.811-2.229,2.368-1.2-1.1.56-3.116,1.125-4.33.337-.726.335-1.91.89-2.523Z" transform="translate(-37.532 -50.105)" fill="#fff"/>
      <path id="Tracciato_52" data-name="Tracciato 52" d="M79.309,56.619c.639-.122,1.168-.2,1.269-.224.7-.146,3.029-.424,3.258.257.466,1.387-1.92,1.312-2.5,1.441-.652.144-2.341.108-1.96,1.2.237.679,1.12,1.025,1.511,1.615.381.575,2.122,2.215.629,2.712-1.211.4-2.255-1.5-2.743-2.3-.385-.631-.716-1.293-1.08-1.936-.258-.457-.994-1.2-1-1.708-.015-.735,2.061-.947,2.621-1.054Z" transform="translate(-54.151 -39.693)" fill="#fff"/>
      <path id="Tracciato_53" data-name="Tracciato 53" d="M80.435,30.214c.125-.186.247-.372.351-.564A5.523,5.523,0,0,1,82.677,27.3c.64-.339,1.071.011,1.1.663.071,1.332-2.131,3.015-2.156,3.7-.036,1.019,3.925-.167,4.754.94.434.58-.588,1.058-1.161,1.106a9.681,9.681,0,0,1-3.9-.269c-.488-.17-1.778-.345-1.811-1.015a3.7,3.7,0,0,1,.93-2.216Z" transform="translate(-56.138 -19.186)" fill="#fff"/>
      <path id="Tracciato_54" data-name="Tracciato 54" d="M26.5,67.585c.748.592,2.3.076,3.1-.2.831-.288,2.307-.883,1.978.338-.318,1.177-2.042,2.806-1.634,4.175.284.952.916,1.172,1.769-.185a9.463,9.463,0,0,0,.961-2.6c.419-1.528,2.015-3.622-.245-3.987-1.532-.247-3.228.889-4.785.774-.864-.064-1.847.974-1.143,1.688Z" transform="translate(-18.543 -45.96)" fill="#fff"/>
    </g>
  </g>
</svg>
