<svg version="1.2" baseProfile="tiny" id="Livello_1" xmlns="http://www.w3.org/2000/svg" xmlns:xlink="http://www.w3.org/1999/xlink" x="0px" y="0px" width="100%" viewBox="0 0 365.358 52.716" xml:space="preserve">
<g>
<path fill-rule="evenodd" fill="#fff" d="M358.439,22.018c-0.72,0.723-1.078,1.596-1.078,2.619c0,1.031,0.357,1.91,1.072,2.637
c0.719,0.727,1.591,1.09,2.619,1.09c1.026,0,1.899-0.363,2.619-1.09c0.718-0.727,1.077-1.605,1.078-2.637
c0-1.023-0.36-1.896-1.078-2.619c-0.724-0.727-1.596-1.09-2.619-1.09C360.033,20.928,359.161,21.291,358.439,22.018z M364.1,27.689
c-0.84,0.844-1.856,1.266-3.047,1.266c-1.192,0-2.205-0.422-3.041-1.266c-0.832-0.84-1.248-1.857-1.248-3.053
c0-1.184,0.419-2.195,1.26-3.035c0.835-0.836,1.845-1.254,3.029-1.254c1.19,0,2.207,0.418,3.047,1.254s1.259,1.848,1.259,3.035
C365.358,25.828,364.939,26.846,364.1,27.689z M361.861,23.008c-0.208-0.117-0.542-0.176-1.003-0.176h-0.708v1.711h0.75
c0.352,0,0.615-0.035,0.791-0.105c0.323-0.129,0.485-0.375,0.486-0.738C362.178,23.355,362.072,23.125,361.861,23.008z
M360.971,22.264c0.586,0,1.015,0.057,1.289,0.17c0.487,0.203,0.731,0.602,0.732,1.195c0,0.422-0.154,0.732-0.463,0.932
c-0.164,0.105-0.393,0.182-0.686,0.229c0.37,0.059,0.642,0.213,0.814,0.463c0.171,0.25,0.257,0.494,0.258,0.732v0.346
c0,0.109,0.003,0.227,0.012,0.352c0.007,0.125,0.021,0.207,0.041,0.246l0.029,0.059h-0.779c-0.005-0.016-0.009-0.031-0.012-0.047
c-0.005-0.016-0.009-0.033-0.012-0.053l-0.018-0.152v-0.375c0-0.547-0.149-0.908-0.445-1.084c-0.176-0.102-0.485-0.152-0.926-0.152
h-0.656v1.863h-0.832v-4.723H360.971z"></path>
<g>
<path fill="#fff" d="M62.268,46.634l1.002-0.536c0.188,0.633,0.511,1.124,0.971,1.472c0.46,0.35,1.012,0.523,1.657,0.523
c0.814,0,1.45-0.24,1.907-0.721s0.686-1.146,0.686-1.995c0-0.621-0.154-1.137-0.461-1.547s-0.968-0.885-1.982-1.424
c-1.295-0.686-2.156-1.289-2.584-1.811s-0.642-1.148-0.642-1.881c0-0.914,0.309-1.658,0.927-2.232s1.419-0.861,2.404-0.861
c0.645,0,1.206,0.136,1.683,0.409c0.478,0.271,0.866,0.681,1.165,1.226l-0.905,0.545c-0.188-0.369-0.453-0.65-0.795-0.844
s-0.749-0.29-1.217-0.29c-0.633,0-1.137,0.187-1.512,0.559s-0.563,0.874-0.563,1.507c0,0.902,0.744,1.743,2.232,2.522
c0.27,0.141,0.475,0.249,0.615,0.325c1.096,0.604,1.828,1.173,2.197,1.71c0.369,0.535,0.554,1.231,0.554,2.087
c0,1.154-0.337,2.069-1.011,2.747c-0.674,0.676-1.591,1.015-2.751,1.015c-0.844,0-1.566-0.21-2.167-0.628
C63.078,48.092,62.607,47.466,62.268,46.634z"></path>
<path fill="#fff" d="M79.002,49.139c-0.557,0-1.09-0.11-1.6-0.329c-0.51-0.221-0.973-0.535-1.389-0.945
c-0.393-0.387-0.691-0.832-0.896-1.336s-0.308-1.043-0.308-1.617c0-0.568,0.105-1.107,0.316-1.617s0.513-0.961,0.905-1.354
c0.398-0.398,0.853-0.703,1.362-0.914s1.046-0.316,1.608-0.316c0.574,0,1.121,0.105,1.639,0.316s0.98,0.516,1.384,0.914
s0.713,0.853,0.927,1.362s0.321,1.046,0.321,1.608s-0.105,1.098-0.316,1.604c-0.211,0.508-0.516,0.957-0.914,1.35
c-0.41,0.41-0.877,0.725-1.402,0.945C80.117,49.028,79.571,49.139,79.002,49.139z M79.038,48.128c0.855,0,1.581-0.309,2.175-0.928
c0.595-0.617,0.892-1.375,0.892-2.271c0-0.908-0.296-1.67-0.888-2.285s-1.318-0.923-2.18-0.923c-0.855,0-1.579,0.308-2.171,0.923
s-0.888,1.377-0.888,2.285c0,0.896,0.296,1.654,0.888,2.271C77.458,47.819,78.182,48.128,79.038,48.128z"></path>
<path fill="#fff" d="M89.164,48.796v-6.873h-1.459V41h1.459v-2.25c0-1.564,0.146-2.579,0.439-3.046
c0.293-0.465,0.829-0.698,1.608-0.698c0.193,0,0.378,0.017,0.554,0.048c0.176,0.033,0.34,0.078,0.492,0.137l-0.202,0.949
c-0.141-0.07-0.277-0.123-0.409-0.158s-0.253-0.053-0.365-0.053c-0.381,0-0.65,0.151-0.809,0.453s-0.237,0.856-0.237,1.665V41
h1.714v0.923h-1.714v6.873H89.164z"></path>
<path fill="#fff" d="M97.197,41.923h-1.433V41h1.433v-3.199h1.063V41h1.564v0.923h-1.564v6.873h-1.063V41.923z"></path>
<path fill="#fff" d="M106.725,49.297L103.614,41h1.134l2.03,5.616l2.452-6.029l2.443,6.029L113.712,41h1.134l-3.12,8.297
l-2.479-6.205L106.725,49.297z"></path>
<path fill="#fff" d="M125.657,48.796v-1.424c-0.258,0.574-0.62,1.013-1.085,1.314c-0.466,0.301-1.015,0.452-1.648,0.452
c-1.119,0-2.02-0.384-2.703-1.151s-1.024-1.781-1.024-3.041c0-1.248,0.337-2.266,1.011-3.055c0.674-0.787,1.544-1.182,2.61-1.182
c0.662,0,1.235,0.145,1.718,0.436c0.483,0.289,0.857,0.716,1.121,1.278V41h1.081v7.796H125.657z M120.401,44.981
c0,1.008,0.227,1.784,0.681,2.329s1.103,0.817,1.947,0.817c0.82,0,1.466-0.297,1.938-0.893c0.472-0.594,0.708-1.413,0.708-2.456
c0-0.955-0.234-1.706-0.703-2.255c-0.469-0.547-1.11-0.821-1.925-0.821s-1.459,0.292-1.934,0.874
C120.639,43.161,120.401,43.962,120.401,44.981z"></path>
<path fill="#fff" d="M134.122,42.564c0.398-0.674,0.79-1.151,1.173-1.433s0.831-0.422,1.34-0.422
c0.152,0,0.306,0.015,0.461,0.044s0.309,0.07,0.461,0.123l-0.352,1.02c-0.117-0.035-0.239-0.064-0.365-0.088
s-0.248-0.035-0.365-0.035c-0.65,0-1.206,0.305-1.666,0.914s-0.69,1.368-0.69,2.276v3.832h-1.081V41h1.081V42.564z"></path>
<path fill="#fff" d="M148.809,44.929h-6.196c0.029,1.008,0.281,1.799,0.756,2.373s1.11,0.861,1.907,0.861
c0.574,0,1.078-0.155,1.512-0.466s0.794-0.779,1.081-1.406l0.993,0.545c-0.398,0.791-0.886,1.373-1.463,1.745
c-0.577,0.371-1.285,0.558-2.123,0.558c-1.143,0-2.067-0.382-2.773-1.147c-0.706-0.764-1.059-1.768-1.059-3.01
c0-1.277,0.35-2.309,1.05-3.094s1.616-1.178,2.747-1.178c1.078,0,1.942,0.362,2.593,1.086s0.976,1.688,0.976,2.896V44.929z
M147.526,44.006c-0.053-0.715-0.29-1.269-0.712-1.661s-0.993-0.589-1.714-0.589c-0.656,0-1.206,0.205-1.648,0.615
s-0.699,0.955-0.769,1.635H147.526z"></path>
<path fill="#fff" d="M169.746,44.929h-6.196c0.029,1.008,0.281,1.799,0.756,2.373s1.11,0.861,1.907,0.861
c0.574,0,1.078-0.155,1.512-0.466s0.794-0.779,1.081-1.406l0.993,0.545c-0.398,0.791-0.886,1.373-1.463,1.745
c-0.577,0.371-1.285,0.558-2.123,0.558c-1.143,0-2.067-0.382-2.773-1.147c-0.706-0.764-1.059-1.768-1.059-3.01
c0-1.277,0.35-2.309,1.05-3.094s1.616-1.178,2.747-1.178c1.078,0,1.942,0.362,2.593,1.086s0.976,1.688,0.976,2.896V44.929z
M168.463,44.006c-0.053-0.715-0.29-1.269-0.712-1.661s-0.993-0.589-1.714-0.589c-0.656,0-1.206,0.205-1.648,0.615
s-0.699,0.955-0.769,1.635H168.463z"></path>
<path fill="#fff" d="M183.098,47.407l1.028-0.589c0.17,0.434,0.416,0.761,0.738,0.979c0.322,0.221,0.718,0.33,1.187,0.33
c0.457,0,0.82-0.115,1.09-0.348c0.27-0.23,0.404-0.54,0.404-0.927c0-0.598-0.53-1.104-1.591-1.521
c-0.111-0.041-0.199-0.076-0.264-0.105c-0.82-0.322-1.395-0.654-1.723-0.998c-0.328-0.342-0.492-0.766-0.492-1.27
c0-0.662,0.234-1.205,0.703-1.631c0.469-0.424,1.075-0.637,1.819-0.637c0.633,0,1.172,0.138,1.617,0.413s0.771,0.668,0.976,1.178
l-0.993,0.554c-0.123-0.369-0.328-0.65-0.615-0.844s-0.639-0.29-1.055-0.29c-0.375,0-0.684,0.11-0.927,0.329
c-0.243,0.221-0.365,0.494-0.365,0.822c0,0.322,0.12,0.589,0.36,0.8s0.738,0.442,1.494,0.694c0.855,0.299,1.431,0.624,1.728,0.976
c0.295,0.352,0.443,0.838,0.443,1.459c0,0.715-0.255,1.286-0.765,1.714s-1.195,0.642-2.057,0.642
c-0.662,0-1.232-0.151-1.709-0.452C183.653,48.385,183.309,47.958,183.098,47.407z"></path>
<path fill="#fff" d="M200.958,44.929h-6.196c0.029,1.008,0.281,1.799,0.756,2.373s1.11,0.861,1.907,0.861
c0.574,0,1.078-0.155,1.512-0.466s0.794-0.779,1.081-1.406l0.993,0.545c-0.398,0.791-0.887,1.373-1.463,1.745
c-0.578,0.371-1.285,0.558-2.123,0.558c-1.143,0-2.067-0.382-2.773-1.147c-0.706-0.764-1.059-1.768-1.059-3.01
c0-1.277,0.35-2.309,1.051-3.094c0.699-0.785,1.615-1.178,2.746-1.178c1.078,0,1.942,0.362,2.593,1.086s0.976,1.688,0.976,2.896
V44.929z M199.675,44.006c-0.053-0.715-0.29-1.269-0.712-1.661s-0.993-0.589-1.714-0.589c-0.656,0-1.206,0.205-1.648,0.615
s-0.698,0.955-0.769,1.635H199.675z"></path>
<path fill="#fff" d="M207.69,42.564c0.398-0.674,0.789-1.151,1.173-1.433s0.831-0.422,1.341-0.422
c0.152,0,0.306,0.015,0.462,0.044c0.154,0.029,0.309,0.07,0.461,0.123l-0.352,1.02c-0.117-0.035-0.239-0.064-0.365-0.088
s-0.247-0.035-0.364-0.035c-0.65,0-1.206,0.305-1.665,0.914c-0.461,0.609-0.69,1.368-0.69,2.276v3.832h-1.081V41h1.081V42.564z"></path>
<path fill="#fff" d="M214.512,41h1.187l2.391,5.906L220.471,41h1.204l-3.586,8.297L214.512,41z"></path>
<path fill="#fff" d="M226.563,37.959c0-0.229,0.082-0.423,0.246-0.585c0.164-0.16,0.36-0.241,0.589-0.241
s0.426,0.081,0.594,0.241c0.166,0.162,0.25,0.356,0.25,0.585c0,0.234-0.081,0.431-0.242,0.589s-0.361,0.237-0.602,0.237
c-0.234,0-0.433-0.079-0.594-0.237S226.563,38.193,226.563,37.959z M226.835,48.796V41h1.116v7.796H226.835z"></path>
<path fill="#fff" d="M233.066,48.796l4.351-6.82h-4.052V41h5.924l-4.315,6.82h4.438v0.976H233.066z"></path>
<path fill="#fff" d="M244.361,37.959c0-0.229,0.082-0.423,0.246-0.585c0.164-0.16,0.36-0.241,0.589-0.241
s0.426,0.081,0.594,0.241c0.166,0.162,0.25,0.356,0.25,0.585c0,0.234-0.081,0.431-0.242,0.589s-0.361,0.237-0.602,0.237
c-0.234,0-0.433-0.079-0.594-0.237S244.361,38.193,244.361,37.959z M244.634,48.796V41h1.116v7.796H244.634z"></path>
<path fill="#fff" d="M267.548,41v6.442c0,1.025-0.028,1.808-0.084,2.347s-0.147,0.94-0.276,1.204
c-0.27,0.58-0.683,1.012-1.239,1.297c-0.557,0.283-1.26,0.426-2.109,0.426c-1.037,0-1.845-0.201-2.422-0.602
c-0.577-0.402-0.927-1.01-1.05-1.824h1.354c0.088,0.48,0.317,0.844,0.69,1.09c0.371,0.246,0.877,0.369,1.516,0.369
c0.48,0,0.912-0.085,1.297-0.255c0.383-0.17,0.672-0.404,0.865-0.703c0.129-0.193,0.221-0.417,0.277-0.673
c0.055-0.254,0.083-0.648,0.083-1.182v-0.413v-1.169c-0.24,0.557-0.608,0.993-1.103,1.31c-0.496,0.316-1.063,0.475-1.701,0.475
c-1.096,0-1.971-0.381-2.623-1.143c-0.654-0.762-0.98-1.784-0.98-3.067c0-1.271,0.334-2.292,1.002-3.063s1.553-1.156,2.654-1.156
c0.615,0,1.174,0.16,1.674,0.479c0.502,0.32,0.86,0.743,1.077,1.271V41H267.548z M263.821,41.703
c-0.809,0-1.445,0.289-1.912,0.866c-0.465,0.577-0.698,1.369-0.698,2.377c0,1.002,0.221,1.783,0.663,2.342
c0.442,0.561,1.057,0.84,1.842,0.84c0.832,0,1.498-0.296,2-0.888c0.5-0.592,0.751-1.389,0.751-2.391
c0-0.984-0.234-1.755-0.703-2.312S264.647,41.703,263.821,41.703z"></path>
<path fill="#fff" d="M280.53,44.929h-6.196c0.029,1.008,0.281,1.799,0.756,2.373s1.11,0.861,1.907,0.861
c0.574,0,1.078-0.155,1.512-0.466s0.794-0.779,1.081-1.406l0.993,0.545c-0.398,0.791-0.887,1.373-1.463,1.745
c-0.578,0.371-1.285,0.558-2.123,0.558c-1.143,0-2.067-0.382-2.773-1.147c-0.706-0.764-1.059-1.768-1.059-3.01
c0-1.277,0.35-2.309,1.051-3.094c0.699-0.785,1.615-1.178,2.746-1.178c1.078,0,1.942,0.362,2.593,1.086s0.976,1.688,0.976,2.896
V44.929z M279.247,44.006c-0.053-0.715-0.29-1.269-0.712-1.661s-0.993-0.589-1.714-0.589c-0.656,0-1.206,0.205-1.648,0.615
s-0.698,0.955-0.769,1.635H279.247z"></path>
<path fill="#fff" d="M285.295,47.407l1.028-0.589c0.17,0.434,0.416,0.761,0.738,0.979c0.322,0.221,0.718,0.33,1.187,0.33
c0.457,0,0.82-0.115,1.09-0.348c0.27-0.23,0.404-0.54,0.404-0.927c0-0.598-0.53-1.104-1.591-1.521
c-0.111-0.041-0.199-0.076-0.264-0.105c-0.82-0.322-1.395-0.654-1.723-0.998c-0.328-0.342-0.492-0.766-0.492-1.27
c0-0.662,0.234-1.205,0.703-1.631c0.469-0.424,1.075-0.637,1.819-0.637c0.633,0,1.172,0.138,1.617,0.413s0.771,0.668,0.976,1.178
l-0.993,0.554c-0.123-0.369-0.328-0.65-0.615-0.844s-0.639-0.29-1.055-0.29c-0.375,0-0.685,0.11-0.927,0.329
c-0.244,0.221-0.365,0.494-0.365,0.822c0,0.322,0.12,0.589,0.36,0.8s0.738,0.442,1.494,0.694c0.855,0.299,1.431,0.624,1.728,0.976
c0.295,0.352,0.443,0.838,0.443,1.459c0,0.715-0.255,1.286-0.765,1.714s-1.195,0.642-2.057,0.642c-0.662,0-1.232-0.151-1.71-0.452
C285.85,48.385,285.506,47.958,285.295,47.407z"></path>
<path fill="#fff" d="M296.686,41.923h-1.433V41h1.433v-3.199h1.063V41h1.564v0.923h-1.564v6.873h-1.063V41.923z"></path>
<path fill="#fff" d="M304.122,37.959c0-0.229,0.082-0.423,0.246-0.585c0.164-0.16,0.36-0.241,0.589-0.241
s0.426,0.081,0.594,0.241c0.166,0.162,0.25,0.356,0.25,0.585c0,0.234-0.081,0.431-0.242,0.589s-0.361,0.237-0.602,0.237
c-0.234,0-0.433-0.079-0.594-0.237S304.122,38.193,304.122,37.959z M304.395,48.796V41h1.116v7.796H304.395z"></path>
<path fill="#fff" d="M315.408,49.139c-0.557,0-1.09-0.11-1.6-0.329c-0.51-0.221-0.973-0.535-1.389-0.945
c-0.393-0.387-0.691-0.832-0.896-1.336s-0.308-1.043-0.308-1.617c0-0.568,0.105-1.107,0.316-1.617s0.513-0.961,0.905-1.354
c0.398-0.398,0.853-0.703,1.362-0.914s1.046-0.316,1.608-0.316c0.574,0,1.12,0.105,1.64,0.316
c0.518,0.211,0.979,0.516,1.384,0.914s0.713,0.853,0.927,1.362s0.321,1.046,0.321,1.608s-0.105,1.098-0.316,1.604
c-0.211,0.508-0.516,0.957-0.914,1.35c-0.41,0.41-0.878,0.725-1.401,0.945C316.522,49.028,315.977,49.139,315.408,49.139z
M315.443,48.128c0.855,0,1.58-0.309,2.175-0.928c0.595-0.617,0.893-1.375,0.893-2.271c0-0.908-0.296-1.67-0.888-2.285
s-1.318-0.923-2.18-0.923c-0.855,0-1.579,0.308-2.171,0.923s-0.888,1.377-0.888,2.285c0,0.896,0.296,1.654,0.888,2.271
C313.864,47.819,314.588,48.128,315.443,48.128z"></path>
<path fill="#fff" d="M325.313,48.796V41h1.028v1.204c0.316-0.498,0.704-0.871,1.165-1.121c0.459-0.248,0.988-0.373,1.586-0.373
c0.885,0,1.573,0.246,2.065,0.738s0.738,1.178,0.738,2.057v5.291h-1.099v-4.808c0-0.779-0.162-1.358-0.488-1.735
c-0.324-0.379-0.827-0.567-1.507-0.567c-0.826,0-1.435,0.245-1.823,0.733c-0.391,0.49-0.585,1.259-0.585,2.308v4.069H325.313z"></path>
<path fill="#fff" d="M343.851,48.796v-1.424c-0.258,0.574-0.62,1.013-1.085,1.314c-0.467,0.301-1.016,0.452-1.648,0.452
c-1.119,0-2.021-0.384-2.703-1.151s-1.023-1.781-1.023-3.041c0-1.248,0.337-2.266,1.011-3.055c0.674-0.787,1.544-1.182,2.61-1.182
c0.662,0,1.234,0.145,1.719,0.436c0.482,0.289,0.856,0.716,1.12,1.278V41h1.081v7.796H343.851z M338.595,44.981
c0,1.008,0.227,1.784,0.681,2.329s1.104,0.817,1.947,0.817c0.82,0,1.466-0.297,1.938-0.893c0.472-0.594,0.708-1.413,0.708-2.456
c0-0.955-0.234-1.706-0.703-2.255c-0.469-0.547-1.11-0.821-1.925-0.821s-1.459,0.292-1.934,0.874
C338.832,43.161,338.595,43.962,338.595,44.981z"></path>
<path fill="#fff" d="M352.421,48.796h-1.116V35.173h1.116V48.796z"></path>
<path fill="#fff" d="M358.573,37.959c0-0.229,0.082-0.423,0.246-0.585c0.164-0.16,0.36-0.241,0.589-0.241
s0.426,0.081,0.594,0.241c0.166,0.162,0.25,0.356,0.25,0.585c0,0.234-0.081,0.431-0.242,0.589s-0.361,0.237-0.602,0.237
c-0.234,0-0.433-0.079-0.594-0.237S358.573,38.193,358.573,37.959z M358.846,48.796V41h1.116v7.796H358.846z"></path>
</g>
<g>
<path fill="#fff" d="M69.012,29.277h-7.305V0.684h8.145c3.19,0,5.43,0.156,6.719,0.469s2.383,0.847,3.281,1.602
c1.055,0.873,1.858,1.963,2.412,3.271c0.553,1.309,0.83,2.764,0.83,4.365c0,1.706-0.273,3.207-0.82,4.502
c-0.547,1.296-1.354,2.36-2.422,3.193c-0.808,0.625-1.758,1.074-2.852,1.348s-2.845,0.41-5.254,0.41h-1.328h-1.406V29.277z
M69.012,13.555h1.484c1.875,0,3.184-0.257,3.926-0.771c0.742-0.514,1.113-1.39,1.113-2.627c0-1.198-0.365-2.051-1.094-2.559
c-0.729-0.508-2.019-0.762-3.867-0.762h-1.563V13.555z"></path>
<path fill="#fff" d="M81.147,29.277L91.01,0.684h9.766l9.883,28.594h-7.754l-1.445-5.117H90.385l-1.484,5.117H81.147z
M92.065,18.594h7.754l-2.91-9.434c-0.091-0.286-0.215-0.749-0.371-1.387c-0.156-0.638-0.358-1.458-0.605-2.461
c-0.169,0.703-0.335,1.374-0.498,2.012c-0.163,0.638-0.329,1.25-0.498,1.836L92.065,18.594z"></path>
<path fill="#fff" d="M114.103,20.039c1.159,1.315,2.301,2.298,3.428,2.949c1.126,0.651,2.249,0.977,3.369,0.977
c1.042,0,1.897-0.28,2.568-0.84c0.67-0.56,1.006-1.27,1.006-2.129c0-0.95-0.29-1.683-0.869-2.197
c-0.58-0.514-1.892-1.045-3.936-1.592c-2.8-0.755-4.779-1.738-5.938-2.949c-1.159-1.211-1.738-2.871-1.738-4.98
c0-2.734,0.915-4.964,2.744-6.689C116.566,0.863,118.939,0,121.856,0c1.575,0,3.069,0.212,4.482,0.635
c1.413,0.423,2.75,1.064,4.014,1.924l-2.441,5.605c-0.886-0.755-1.794-1.325-2.725-1.709c-0.931-0.384-1.853-0.576-2.764-0.576
c-0.938,0-1.699,0.225-2.285,0.674s-0.879,1.025-0.879,1.729c0,0.716,0.257,1.289,0.771,1.719c0.514,0.43,1.507,0.84,2.979,1.23
l0.352,0.098c3.177,0.859,5.267,1.804,6.27,2.832c0.677,0.703,1.191,1.546,1.543,2.529c0.352,0.983,0.527,2.074,0.527,3.271
c0,3.034-0.996,5.472-2.988,7.314s-4.648,2.764-7.969,2.764c-1.992,0-3.806-0.339-5.439-1.016
c-1.634-0.677-3.207-1.738-4.717-3.184L114.103,20.039z"></path>
<path fill="#fff" d="M136.785,20.039c1.159,1.315,2.301,2.298,3.428,2.949c1.126,0.651,2.249,0.977,3.369,0.977
c1.042,0,1.897-0.28,2.568-0.84c0.67-0.56,1.006-1.27,1.006-2.129c0-0.95-0.29-1.683-0.869-2.197
c-0.58-0.514-1.892-1.045-3.936-1.592c-2.8-0.755-4.779-1.738-5.938-2.949c-1.159-1.211-1.738-2.871-1.738-4.98
c0-2.734,0.915-4.964,2.744-6.689C139.249,0.863,141.622,0,144.539,0c1.575,0,3.069,0.212,4.482,0.635
c1.413,0.423,2.75,1.064,4.014,1.924l-2.441,5.605c-0.886-0.755-1.794-1.325-2.725-1.709c-0.931-0.384-1.853-0.576-2.764-0.576
c-0.938,0-1.699,0.225-2.285,0.674s-0.879,1.025-0.879,1.729c0,0.716,0.257,1.289,0.771,1.719c0.514,0.43,1.507,0.84,2.979,1.23
l0.352,0.098c3.177,0.859,5.267,1.804,6.27,2.832c0.677,0.703,1.191,1.546,1.543,2.529c0.352,0.983,0.527,2.074,0.527,3.271
c0,3.034-0.996,5.472-2.988,7.314s-4.648,2.764-7.969,2.764c-1.992,0-3.806-0.339-5.439-1.016
c-1.634-0.677-3.207-1.738-4.717-3.184L136.785,20.039z"></path>
<path fill="#fff" d="M158.197,29.277V0.684h17.52v6.27h-9.922v4.961h9.355v6.133h-9.355v4.824h9.922v6.406H158.197z"></path>
<path fill="#fff" d="M187.618,29.277h-7.305V0.684h8.145c3.19,0,5.43,0.156,6.719,0.469s2.383,0.847,3.281,1.602
c1.055,0.873,1.858,1.963,2.412,3.271s0.83,2.764,0.83,4.365c0,1.706-0.273,3.207-0.82,4.502c-0.547,1.296-1.354,2.36-2.422,3.193
c-0.808,0.625-1.758,1.074-2.852,1.348s-2.845,0.41-5.254,0.41h-1.328h-1.406V29.277z M187.618,13.555h1.484
c1.875,0,3.184-0.257,3.926-0.771c0.742-0.514,1.113-1.39,1.113-2.627c0-1.198-0.364-2.051-1.094-2.559s-2.019-0.762-3.867-0.762
h-1.563V13.555z"></path>
<path fill="#fff" d="M199.753,29.277l9.863-28.594h9.766l9.883,28.594h-7.754l-1.445-5.117h-11.074l-1.484,5.117H199.753z
M210.671,18.594h7.754l-2.91-9.434c-0.091-0.286-0.215-0.749-0.371-1.387c-0.156-0.638-0.358-1.458-0.605-2.461
c-0.169,0.703-0.335,1.374-0.498,2.012c-0.163,0.638-0.329,1.25-0.498,1.836L210.671,18.594z"></path>
<path fill="#fff" d="M231.439,29.277V0.684h8.145c3.19,0,5.413,0.146,6.67,0.439s2.341,0.785,3.252,1.475
c1.028,0.781,1.819,1.777,2.373,2.988s0.83,2.546,0.83,4.004c0,2.214-0.544,4.014-1.631,5.4s-2.673,2.308-4.756,2.764
l7.793,11.523h-8.809l-6.563-11.191v11.191H231.439z M238.744,14.199h1.445c1.68,0,2.907-0.286,3.682-0.859
c0.774-0.573,1.162-1.471,1.162-2.695c0-1.432-0.361-2.451-1.084-3.057s-1.937-0.908-3.643-0.908h-1.563V14.199z"></path>
<path fill="#fff" d="M260.645,29.277V7.441h-6.406V0.684h20.605v6.758h-6.406v21.836H260.645z"></path>
<path fill="#fff" d="M306.745,15.039c0,2.058-0.378,3.984-1.133,5.781s-1.855,3.405-3.301,4.824
c-1.458,1.406-3.125,2.49-5,3.252s-3.821,1.143-5.84,1.143c-2.044,0-4.001-0.381-5.869-1.143s-3.513-1.846-4.932-3.252
c-1.472-1.419-2.588-3.034-3.35-4.844c-0.762-1.81-1.143-3.73-1.143-5.762c0-2.044,0.381-3.968,1.143-5.771
c0.762-1.803,1.878-3.415,3.35-4.834c1.419-1.406,3.063-2.49,4.932-3.252s3.825-1.143,5.869-1.143
c2.031,0,3.987,0.381,5.869,1.143s3.538,1.846,4.971,3.252s2.529,3.015,3.291,4.824C306.364,11.068,306.745,12.995,306.745,15.039
z M291.472,23.438c2.161,0,3.948-0.794,5.361-2.383c1.413-1.588,2.119-3.594,2.119-6.016c0-2.396-0.716-4.395-2.148-5.996
s-3.21-2.402-5.332-2.402c-2.161,0-3.948,0.798-5.361,2.393c-1.413,1.595-2.119,3.597-2.119,6.006c0,2.448,0.696,4.46,2.09,6.035
C287.475,22.65,289.271,23.438,291.472,23.438z"></path>
<path fill="#fff" d="M310.893,0.684h7.773V14.59c0,2.044,0.052,3.513,0.156,4.404c0.104,0.892,0.28,1.638,0.527,2.236
c0.3,0.729,0.82,1.286,1.563,1.67c0.742,0.384,1.647,0.576,2.715,0.576s1.97-0.192,2.705-0.576c0.735-0.384,1.26-0.94,1.572-1.67
c0.247-0.599,0.423-1.344,0.527-2.236c0.104-0.892,0.156-2.36,0.156-4.404v-1.953V0.684h7.754v15.117
c0,3.138-0.188,5.453-0.566,6.943c-0.378,1.491-1.016,2.764-1.914,3.818c-0.977,1.159-2.317,2.028-4.023,2.607
s-3.776,0.869-6.211,0.869c-2.448,0-4.521-0.29-6.221-0.869s-3.044-1.448-4.033-2.607c-0.886-1.055-1.521-2.327-1.904-3.818
c-0.384-1.491-0.576-3.805-0.576-6.943v-2.969V0.684z"></path>
<path fill="#fff" d="M345.82,29.277V7.441h-6.406V0.684h20.605v6.758h-6.406v21.836H345.82z"></path>
</g>
<g>
<path fill="#fff" d="M30.587,28.419c-3.513,3.314-9.624,1.229-9.728-3.912c-0.046-2.305,1.593-6.312,4.596-5.355
c0.676,0.215,1.561,1.342,1.152,2.232c-0.419,0.914-1.867,0.32-2.535,0.963c-1.521,1.466,0.003,4.648,1.931,4.827
c2.046,0.189,4.816-1.913,3.971-4.208c-0.482-1.31-2.239-1.689-2.709-3.055c-0.196-0.57-0.104-1.245,0.425-1.578
c0.668-0.417,1.104,0.088,1.741,0.245c0.868,0.216,1.621,0.729,2.194,1.409C33.789,22.55,32.855,26.278,30.587,28.419z"></path>
<path fill="#fff" d="M44.68,41.616c-6.225,5.859-13.898,8.348-21.931,6.408c-8.458-1.348-15.846-6.688-18.26-14.395
c-0.019-0.711,0.063-1.482,0.406-2.034c0.4-0.645,1.106-0.909,2.052-0.51c2.064,2.024,2.753,4.405,4.794,6.438
c2.034,2.023,4.783,4.377,7.268,5.465c5.243,2.297,10.035,3.353,16.54,0.478c3.685-1.318,7.823-5.277,9.988-8.396
c3.504-5.05,3.78-10.974,1.41-17.697c-1.514-4.294-4.888-7.239-8.767-10.089c-8.286-4.771-20.091-3.952-27.818,1.764
c-2.524,1.783-3.972,4.048-5.056,6.496c-0.689,1.56-1.101,3.324-1.651,4.941c-0.542,1.596-1.457,2.77-3.069,1.82
c-0.663-0.391-0.572-1.393-0.585-2.146c-0.026-1.616,0.552-3.232,1.158-4.705c1.408-3.42,3.476-6.47,6.334-8.852
c1.781-1.484,3.852-2.631,6.014-3.462c2.333-0.896,6.334-1.765,8.83-2.099c4.458-0.594,7.955-0.145,11.252,0.587
c4.268,0.946,7.983,3.038,11.947,7.246c5.328,5.656,8.025,13.405,5.875,21.729c-0.507,1.963-1.462,3.671-2.426,5.459
C47.992,37.903,46.215,40.171,44.68,41.616z"></path>
<path fill="#fff" d="M22.289,9.843c0.075,0.529,0.125,0.994,0.179,1.283c0.286,1.487,2.027,5.97-0.269,6.711
c-2.046,0.66-5.089-1.572-6.818-2.439c-1.171-0.588-4.413-0.936-3.814-2.875c1.454-4.703,7.162,3.719,8.538,2.301
c1.892-1.95-3.717-7.537-0.141-8.492C21.586,5.897,22.057,8.188,22.289,9.843z"></path>
<path fill="#fff" d="M27.015,6.177c0.25,0.125,0.504,0.398,0.741,0.865c0.804,1.59,0.637,4.563,1.695,5.992
c1.544,2.082,3.019-2.525,3.907-3.502c0.787-0.864,3.965-2.939,3.444-0.243c-0.503,2.596-4.219,7.085-6.791,7.303
c-3.125,0.266-4.407-5.823-4.611-8.171C25.29,7.14,26.131,5.735,27.015,6.177z"></path>
<path fill="#fff" d="M18.045,21.552c1.207,1.709-0.961,3.938-2.165,4.934c-0.718,0.594-8.015,4.189-8.123,1.857
c-0.071-1.54,2.51-2.549,3.603-3.056c0.975-0.452,4.448-1.135,3.595-2.746c-1.02-1.929-4.51-1.829-6.064-3.192
c-0.702-0.615-1.816-1.457-0.66-2.207c2.013-1.305,4.865,0.919,6.436,2.014C15.751,19.914,17.25,20.431,18.045,21.552z"></path>
<path fill="#fff" d="M27.077,32.599c0.049-0.054,0.1-0.104,0.154-0.151c1.219-1.062,3.033,0.308,4.043,1.049
c1.906,1.401,8.267,5.001,5.881,7.058c-1.549,1.334-4.45-2.39-4.948-2.869c-1.098-1.057-1.646-2.287-3.3-1.725
c-0.818,0.278-1.222,2.557-1.509,3.369c-0.585,1.646-1.577,4.218-3.344,3.553c-1.798-1.657,0.84-4.676,1.688-6.497
C26.248,35.295,26.244,33.519,27.077,32.599z"></path>
<path fill="#fff" d="M37.751,26.165c0.959-0.184,1.753-0.304,1.904-0.336c1.055-0.22,4.545-0.637,4.889,0.385
c0.7,2.082-2.88,1.97-3.752,2.162c-0.979,0.217-3.513,0.162-2.942,1.794c0.356,1.02,1.681,1.538,2.267,2.424
c0.571,0.862,3.184,3.323,0.943,4.069c-1.816,0.605-3.384-2.247-4.116-3.447c-0.577-0.946-1.075-1.939-1.62-2.905
c-0.388-0.687-1.491-1.802-1.505-2.563C33.795,26.644,36.91,26.326,37.751,26.165z"></path>
<path fill="#fff" d="M36.458,17.315c0.188-0.279,0.37-0.559,0.528-0.846c0.656-1.199,1.5-2.816,2.837-3.523
c0.96-0.508,1.606,0.017,1.658,0.995c0.107,1.998-3.197,4.523-3.234,5.557c-0.053,1.528,5.89-0.251,7.134,1.41
c0.651,0.87-0.882,1.587-1.742,1.659c-1.979,0.166-4.076,0.218-5.858-0.404c-0.732-0.255-2.667-0.518-2.717-1.522
C34.998,19.343,35.768,18.337,36.458,17.315z"></path>
<path fill="#fff" d="M11.941,33.218c1.123,0.889,3.449,0.113,4.65-0.303c1.247-0.432,3.461-1.324,2.968,0.507
c-0.477,1.767-3.064,4.21-2.453,6.265c0.425,1.428,1.375,1.758,2.654-0.277c0.748-1.186,1.078-2.576,1.442-3.903
c0.628-2.292,3.023-5.435-0.367-5.983c-2.299-0.371-4.844,1.334-7.18,1.162C12.36,30.589,10.884,32.146,11.941,33.218z"></path>
</g>
</g>
</svg>